<svg xmlns="http://www.w3.org/2000/svg" xmlns:xlink="http://www.w3.org/1999/xlink" width="392" zoomAndPan="magnify" viewBox="0 0 294 293.999989" height="392" preserveAspectRatio="xMidYMid meet" version="1.0"><defs><clipPath id="27f0b9d19b"><path d="M 17.574219 20.105469 L 274.824219 20.105469 L 274.824219 270.605469 L 17.574219 270.605469 Z M 17.574219 20.105469 " clip-rule="nonzero"/></clipPath></defs><g clip-path="url(#27f0b9d19b)"><path fill="#ffffff" d="M 31.078125 20.109375 L 261.316406 20.109375 C 268.777344 20.109375 274.824219 26.15625 274.824219 33.617188 L 274.824219 257.097656 C 274.824219 264.554688 268.777344 270.601562 261.316406 270.601562 L 31.078125 270.601562 C 23.617188 270.601562 17.574219 264.554688 17.574219 257.097656 L 17.574219 33.617188 C 17.574219 26.15625 23.617188 20.109375 31.078125 20.109375 " fill-opacity="1" fill-rule="nonzero"/></g><path fill="#ffffff" d="M 269.4375 0 L 24.707031 0 C 11.175781 0 0.292969 11.03125 0.292969 24.414062 L 0.292969 269.585938 C 0.292969 283.117188 11.324219 294 24.707031 294 L 269.292969 294 C 282.824219 294 293.707031 282.96875 293.707031 269.585938 L 293.707031 24.414062 C 293.851562 11.03125 282.96875 0 269.4375 0 Z M 87.214844 242.523438 L 43.828125 242.523438 L 43.828125 112.21875 L 87.214844 112.21875 Z M 65.449219 96.480469 C 51.769531 96.480469 40.738281 85.449219 40.738281 71.773438 C 40.738281 58.09375 51.769531 47.0625 65.449219 47.0625 C 79.125 47.0625 90.15625 58.09375 90.15625 71.773438 C 90.15625 85.449219 79.125 96.480469 65.449219 96.480469 Z M 250.464844 242.523438 L 206.933594 242.523438 L 205.902344 165.164062 C 205.902344 165.164062 206.933594 144.574219 184.429688 144.71875 C 161.929688 144.867188 158.839844 165.164062 158.839844 165.164062 L 158.839844 242.523438 L 115.011719 242.523438 L 115.011719 112.21875 L 157.074219 112.21875 L 157.074219 130.160156 C 157.074219 130.160156 158.839844 124.277344 168.546875 117.363281 C 178.253906 110.453125 194.285156 108.980469 201.195312 109.277344 C 208.109375 109.570312 217.523438 108.394531 233.257812 119.277344 C 250.171875 130.894531 250.613281 161.339844 250.613281 161.339844 Z M 250.464844 242.523438 " fill-opacity="1" fill-rule="nonzero"/><path fill="#f2f2f2" d="M 250.957031 235.621094 L 41.21875 235.621094 C 33.027344 235.621094 26.167969 229.132812 26.167969 220.753906 L 26.167969 75.578125 C 26.167969 74.589844 26.265625 73.613281 26.460938 72.644531 C 26.65625 71.675781 26.941406 70.734375 27.320312 69.820312 C 27.699219 68.910156 28.164062 68.042969 28.714844 67.222656 C 29.261719 66.402344 29.886719 65.640625 30.585938 64.945312 C 31.285156 64.246094 32.042969 63.621094 32.867188 63.074219 C 33.6875 62.523438 34.554688 62.0625 35.464844 61.683594 C 36.378906 61.304688 37.316406 61.019531 38.285156 60.824219 C 39.253906 60.632812 40.234375 60.535156 41.21875 60.535156 L 250.957031 60.535156 C 259.152344 60.535156 266.011719 67.285156 266.011719 75.59375 L 266.011719 220.566406 C 265.824219 229.148438 259.152344 235.628906 250.957031 235.628906 Z M 250.957031 235.621094 " fill-opacity="1" fill-rule="nonzero"/><path fill="#221f1f" d="M 56.152344 235.621094 L 145.886719 169.921875 L 146.457031 166.109375 L 53.902344 99.59375 L 53.714844 232.378906 Z M 56.152344 235.621094 " fill-opacity="0.098" fill-rule="nonzero"/><path fill="#d44c3d" d="M 41.21875 235.621094 C 32.914062 235.621094 26.167969 229.132812 26.167969 220.753906 L 26.167969 75.382812 C 26.167969 67 32.914062 65.484375 41.21875 65.484375 C 49.527344 65.484375 56.273438 67.207031 56.273438 75.382812 L 56.273438 235.613281 Z M 41.21875 235.621094 " fill-opacity="1" fill-rule="nonzero"/><path fill="#d44c3d" d="M 41.21875 67.761719 C 51.886719 67.761719 53.988281 71.003906 53.988281 75.382812 L 53.988281 233.511719 L 41.21875 233.511719 C 34.171875 233.511719 28.453125 227.796875 28.453125 220.742188 L 28.453125 75.382812 C 28.265625 70.882812 30.550781 67.761719 41.21875 67.761719 Z M 41.21875 65.664062 C 32.914062 65.671875 26.167969 67.378906 26.167969 75.382812 L 26.167969 220.554688 C 26.160156 221.046875 26.175781 221.542969 26.21875 222.035156 C 26.261719 222.53125 26.328125 223.019531 26.421875 223.507812 C 26.511719 223.992188 26.628906 224.472656 26.765625 224.949219 C 26.90625 225.425781 27.070312 225.890625 27.253906 226.351562 C 27.441406 226.808594 27.648438 227.257812 27.882812 227.695312 C 28.113281 228.132812 28.363281 228.558594 28.636719 228.972656 C 28.910156 229.382812 29.203125 229.78125 29.519531 230.164062 C 29.832031 230.546875 30.164062 230.914062 30.511719 231.265625 C 30.863281 231.617188 31.230469 231.949219 31.613281 232.261719 C 31.996094 232.574219 32.394531 232.867188 32.804688 233.140625 C 33.21875 233.414062 33.644531 233.667969 34.082031 233.898438 C 34.519531 234.128906 34.96875 234.339844 35.425781 234.523438 C 35.886719 234.710938 36.351562 234.875 36.828125 235.011719 C 37.300781 235.152344 37.78125 235.269531 38.269531 235.359375 C 38.753906 235.449219 39.246094 235.519531 39.738281 235.558594 C 40.230469 235.601562 40.726562 235.621094 41.21875 235.613281 L 56.273438 235.613281 L 56.273438 75.382812 C 56.152344 67.191406 49.601562 65.671875 41.21875 65.671875 Z M 250.957031 67.761719 C 260.671875 67.761719 263.722656 69.667969 263.722656 75.007812 L 263.722656 220.941406 C 263.722656 227.992188 258.011719 233.714844 250.957031 233.714844 L 238.191406 233.714844 L 238.191406 75.007812 C 238.003906 69.480469 241.242188 67.761719 250.957031 67.761719 Z M 250.957031 65.664062 C 242.578125 65.664062 235.90625 66.804688 235.90625 75 L 235.90625 235.800781 L 250.957031 235.800781 C 259.339844 235.800781 266.011719 229.050781 266.011719 220.742188 L 266.011719 74.8125 C 265.824219 66.617188 259.152344 65.664062 250.957031 65.664062 Z M 250.957031 65.664062 " fill-opacity="1" fill-rule="nonzero"/><path fill="#d44c3d" d="M 250.957031 235.621094 L 235.90625 235.621094 L 235.90625 75.007812 C 235.90625 66.625 242.652344 65.671875 250.957031 65.671875 C 259.261719 65.671875 266.011719 66.8125 266.011719 75.007812 L 266.011719 220.941406 C 265.988281 221.917969 265.875 222.878906 265.667969 223.832031 C 265.457031 224.78125 265.160156 225.703125 264.773438 226.597656 C 264.382812 227.492188 263.914062 228.339844 263.359375 229.140625 C 262.808594 229.941406 262.183594 230.683594 261.484375 231.363281 C 260.789062 232.042969 260.03125 232.648438 259.214844 233.179688 C 258.402344 233.714844 257.542969 234.164062 256.640625 234.527344 C 255.738281 234.894531 254.808594 235.167969 253.851562 235.351562 C 252.894531 235.535156 251.929688 235.625 250.957031 235.621094 Z M 250.957031 235.621094 " fill-opacity="1" fill-rule="nonzero"/><path fill="#221f1f" d="M 186.757812 235.621094 L 27.5 81.757812 L 35.882812 85.1875 L 146.832031 165.039062 L 266.003906 77.484375 L 266.003906 220.941406 C 266 221.925781 265.898438 222.898438 265.703125 223.863281 C 265.507812 224.828125 265.21875 225.761719 264.835938 226.667969 C 264.457031 227.574219 263.992188 228.433594 263.441406 229.25 C 262.890625 230.0625 262.265625 230.816406 261.566406 231.507812 C 260.867188 232.195312 260.105469 232.8125 259.285156 233.351562 C 258.464844 233.894531 257.597656 234.347656 256.6875 234.71875 C 255.777344 235.085938 254.835938 235.363281 253.871094 235.546875 C 252.90625 235.730469 251.933594 235.816406 250.949219 235.808594 Z M 186.757812 235.621094 " fill-opacity="0.0784" fill-rule="nonzero"/><path fill="#d44c3d" d="M 145.8125 170.109375 L 32.644531 87.96875 C 25.898438 83.019531 24.066406 73.492188 29.023438 66.816406 C 33.976562 60.144531 43.492188 58.621094 50.359375 63.578125 L 145.992188 133.140625 L 242.195312 62.632812 C 248.941406 57.683594 258.199219 59.207031 263.148438 66.0625 C 268.09375 72.8125 266.574219 82.074219 259.722656 87.023438 Z M 145.8125 170.109375 " fill-opacity="1" fill-rule="nonzero"/><path fill="#d44c3d" d="M 250.957031 62.046875 C 254.960938 62.046875 258.957031 63.953125 261.4375 67.386719 C 265.441406 73.101562 264.285156 81.113281 258.589844 85.386719 L 145.8125 167.445312 L 33.976562 86.257812 C 28.265625 82.058594 26.738281 73.859375 30.664062 68.257812 C 32.953125 64.832031 36.960938 62.730469 41.332031 62.730469 C 44.179688 62.730469 46.859375 63.496094 48.949219 65.207031 L 144.378906 134.582031 L 145.714844 135.347656 L 147.046875 134.582031 L 243.152344 64.132812 C 245.628906 62.796875 248.101562 62.035156 250.964844 62.035156 Z M 250.957031 59.761719 C 247.90625 59.761719 244.660156 60.527344 242.1875 62.609375 L 145.992188 133.132812 L 50.171875 63.382812 C 47.695312 61.476562 44.457031 60.535156 41.21875 60.535156 C 36.460938 60.722656 31.699219 62.820312 28.835938 66.832031 C 24.074219 73.582031 25.988281 82.847656 32.644531 87.796875 L 145.8125 170.109375 L 259.722656 87.007812 C 260.515625 86.425781 261.246094 85.773438 261.910156 85.050781 C 262.578125 84.328125 263.167969 83.546875 263.683594 82.707031 C 264.195312 81.871094 264.625 80.988281 264.96875 80.066406 C 265.3125 79.144531 265.5625 78.199219 265.71875 77.226562 C 265.878906 76.257812 265.941406 75.28125 265.910156 74.296875 C 265.878906 73.3125 265.753906 72.34375 265.53125 71.382812 C 265.3125 70.425781 265 69.496094 264.601562 68.597656 C 264.199219 67.699219 263.714844 66.847656 263.148438 66.046875 C 260.09375 62.039062 255.53125 59.746094 250.957031 59.746094 Z M 250.957031 59.761719 " fill-opacity="1" fill-rule="nonzero"/></svg>