<svg xmlns="http://www.w3.org/2000/svg" xmlns:xlink="http://www.w3.org/1999/xlink" width="392" zoomAndPan="magnify" viewBox="0 0 294 293.999989" height="392" preserveAspectRatio="xMidYMid meet" version="1.0"><defs><clipPath id="7eec52901e"><path d="M 17.574219 20.105469 L 274.824219 20.105469 L 274.824219 270.605469 L 17.574219 270.605469 Z M 17.574219 20.105469 " clip-rule="nonzero"/></clipPath></defs><g clip-path="url(#7eec52901e)"><path fill="#ffffff" d="M 31.078125 20.109375 L 261.316406 20.109375 C 268.777344 20.109375 274.824219 26.15625 274.824219 33.617188 L 274.824219 257.097656 C 274.824219 264.554688 268.777344 270.601562 261.316406 270.601562 L 31.078125 270.601562 C 23.617188 270.601562 17.574219 264.554688 17.574219 257.097656 L 17.574219 33.617188 C 17.574219 26.15625 23.617188 20.109375 31.078125 20.109375 " fill-opacity="1" fill-rule="nonzero"/></g><path fill="#ffffff" d="M 269.4375 0 L 24.707031 0 C 11.175781 0 0.292969 11.03125 0.292969 24.414062 L 0.292969 269.585938 C 0.292969 283.117188 11.324219 294 24.707031 294 L 269.292969 294 C 282.824219 294 293.707031 282.96875 293.707031 269.585938 L 293.707031 24.414062 C 293.851562 11.03125 282.96875 0 269.4375 0 Z M 87.214844 242.523438 L 43.828125 242.523438 L 43.828125 112.21875 L 87.214844 112.21875 Z M 65.449219 96.480469 C 51.769531 96.480469 40.738281 85.449219 40.738281 71.773438 C 40.738281 58.09375 51.769531 47.0625 65.449219 47.0625 C 79.125 47.0625 90.15625 58.09375 90.15625 71.773438 C 90.15625 85.449219 79.125 96.480469 65.449219 96.480469 Z M 250.464844 242.523438 L 206.933594 242.523438 L 205.902344 165.164062 C 205.902344 165.164062 206.933594 144.574219 184.429688 144.71875 C 161.929688 144.867188 158.839844 165.164062 158.839844 165.164062 L 158.839844 242.523438 L 115.011719 242.523438 L 115.011719 112.21875 L 157.074219 112.21875 L 157.074219 130.160156 C 157.074219 130.160156 158.839844 124.277344 168.546875 117.363281 C 178.253906 110.453125 194.285156 108.980469 201.195312 109.277344 C 208.109375 109.570312 217.523438 108.394531 233.257812 119.277344 C 250.171875 130.894531 250.613281 161.339844 250.613281 161.339844 Z M 250.464844 242.523438 " fill-opacity="1" fill-rule="nonzero"/><path fill="#f2f2f2" d="M 245.882812 230.472656 L 48.339844 230.472656 C 40.625 230.472656 34.164062 224.363281 34.164062 216.480469 L 34.164062 79.84375 C 34.164062 78.914062 34.257812 77.992188 34.441406 77.082031 C 34.621094 76.167969 34.894531 75.285156 35.25 74.425781 C 35.605469 73.566406 36.042969 72.75 36.5625 71.976562 C 37.078125 71.207031 37.667969 70.492188 38.324219 69.832031 C 38.984375 69.175781 39.699219 68.589844 40.472656 68.074219 C 41.246094 67.554688 42.0625 67.121094 42.921875 66.765625 C 43.78125 66.40625 44.664062 66.140625 45.578125 65.957031 C 46.488281 65.773438 47.410156 65.683594 48.339844 65.683594 L 245.882812 65.683594 C 253.601562 65.683594 260.0625 72.035156 260.0625 79.855469 L 260.0625 216.304688 C 259.886719 224.378906 253.601562 230.476562 245.882812 230.476562 Z M 245.882812 230.472656 " fill-opacity="1" fill-rule="nonzero"/><path fill="#221f1f" d="M 62.40625 230.472656 L 146.921875 168.636719 L 147.457031 165.050781 L 60.289062 102.445312 L 60.109375 227.421875 Z M 62.40625 230.472656 " fill-opacity="0.098" fill-rule="nonzero"/><path fill="#d44c3d" d="M 48.339844 230.472656 C 40.515625 230.472656 34.164062 224.363281 34.164062 216.480469 L 34.164062 79.660156 C 34.164062 71.765625 40.515625 70.339844 48.339844 70.339844 C 56.164062 70.339844 62.519531 71.964844 62.519531 79.660156 L 62.519531 230.464844 Z M 48.339844 230.472656 " fill-opacity="1" fill-rule="nonzero"/><path fill="#d44c3d" d="M 48.339844 72.488281 C 58.386719 72.488281 60.363281 75.535156 60.363281 79.660156 L 60.363281 228.488281 L 48.339844 228.488281 C 41.703125 228.488281 36.316406 223.109375 36.316406 216.464844 L 36.316406 79.660156 C 36.140625 75.421875 38.292969 72.488281 48.339844 72.488281 Z M 48.339844 70.511719 C 40.515625 70.519531 34.164062 72.128906 34.164062 79.660156 L 34.164062 216.289062 C 34.148438 217.222656 34.230469 218.148438 34.402344 219.070312 C 34.574219 219.988281 34.835938 220.878906 35.1875 221.746094 C 35.539062 222.609375 35.972656 223.433594 36.488281 224.210938 C 37.007812 224.992188 37.59375 225.710938 38.257812 226.371094 C 38.917969 227.03125 39.636719 227.621094 40.417969 228.136719 C 41.195312 228.652344 42.019531 229.085938 42.882812 229.4375 C 43.75 229.789062 44.640625 230.050781 45.5625 230.226562 C 46.480469 230.398438 47.40625 230.476562 48.339844 230.464844 L 62.519531 230.464844 L 62.519531 79.660156 C 62.40625 71.949219 56.234375 70.519531 48.339844 70.519531 Z M 245.882812 72.488281 C 255.035156 72.488281 257.90625 74.28125 257.90625 79.304688 L 257.90625 216.65625 C 257.90625 223.292969 252.527344 228.679688 245.882812 228.679688 L 233.859375 228.679688 L 233.859375 79.304688 C 233.683594 74.105469 236.734375 72.488281 245.882812 72.488281 Z M 245.882812 70.511719 C 237.988281 70.511719 231.707031 71.582031 231.707031 79.300781 L 231.707031 230.640625 L 245.882812 230.640625 C 253.777344 230.640625 260.0625 224.289062 260.0625 216.464844 L 260.0625 79.121094 C 259.886719 71.40625 253.601562 70.511719 245.882812 70.511719 Z M 245.882812 70.511719 " fill-opacity="1" fill-rule="nonzero"/><path fill="#d44c3d" d="M 245.882812 230.472656 L 231.707031 230.472656 L 231.707031 79.304688 C 231.707031 71.414062 238.0625 70.519531 245.882812 70.519531 C 253.707031 70.519531 260.0625 71.589844 260.0625 79.304688 L 260.0625 216.65625 C 260.042969 217.574219 259.933594 218.480469 259.738281 219.375 C 259.542969 220.269531 259.261719 221.136719 258.894531 221.980469 C 258.53125 222.820312 258.085938 223.617188 257.566406 224.371094 C 257.046875 225.125 256.457031 225.824219 255.800781 226.464844 C 255.144531 227.101562 254.429688 227.671875 253.664062 228.175781 C 252.894531 228.675781 252.085938 229.097656 251.234375 229.441406 C 250.386719 229.785156 249.511719 230.042969 248.609375 230.21875 C 247.710938 230.390625 246.800781 230.476562 245.882812 230.472656 Z M 245.882812 230.472656 " fill-opacity="1" fill-rule="nonzero"/><path fill="#221f1f" d="M 185.417969 230.472656 L 35.417969 85.660156 L 43.3125 88.886719 L 147.8125 164.039062 L 260.054688 81.636719 L 260.054688 216.65625 C 260.050781 217.582031 259.957031 218.496094 259.773438 219.40625 C 259.585938 220.3125 259.316406 221.191406 258.957031 222.042969 C 258.597656 222.898438 258.160156 223.707031 257.640625 224.472656 C 257.121094 225.238281 256.53125 225.949219 255.875 226.597656 C 255.214844 227.25 254.5 227.828125 253.726562 228.335938 C 252.953125 228.84375 252.136719 229.273438 251.28125 229.621094 C 250.421875 229.96875 249.539062 230.226562 248.628906 230.402344 C 247.71875 230.574219 246.800781 230.65625 245.875 230.648438 Z M 185.417969 230.472656 " fill-opacity="0.0784" fill-rule="nonzero"/><path fill="#d44c3d" d="M 146.851562 168.8125 L 40.261719 91.503906 C 33.910156 86.84375 32.1875 77.878906 36.851562 71.597656 C 41.519531 65.316406 50.480469 63.882812 56.949219 68.546875 L 147.019531 134.019531 L 237.628906 67.660156 C 243.984375 63 252.703125 64.433594 257.363281 70.886719 C 262.023438 77.238281 260.589844 85.957031 254.136719 90.613281 Z M 146.851562 168.8125 " fill-opacity="1" fill-rule="nonzero"/><path fill="#d44c3d" d="M 245.882812 67.109375 C 249.652344 67.109375 253.417969 68.902344 255.753906 72.132812 C 259.523438 77.511719 258.4375 85.050781 253.070312 89.074219 L 146.851562 166.304688 L 41.519531 89.894531 C 36.140625 85.941406 34.699219 78.226562 38.398438 72.953125 C 40.554688 69.726562 44.332031 67.75 48.445312 67.75 C 51.128906 67.75 53.648438 68.472656 55.621094 70.082031 L 145.503906 135.375 L 146.757812 136.09375 L 148.015625 135.375 L 238.535156 69.070312 C 240.863281 67.8125 243.195312 67.09375 245.890625 67.09375 Z M 245.882812 64.957031 C 243.011719 64.957031 239.953125 65.675781 237.621094 67.636719 L 147.019531 134.011719 L 56.769531 68.363281 C 54.441406 66.570312 51.390625 65.683594 48.339844 65.683594 C 43.855469 65.859375 39.375 67.835938 36.675781 71.613281 C 32.191406 77.964844 33.992188 86.683594 40.261719 91.339844 L 146.851562 168.8125 L 254.136719 90.601562 C 254.886719 90.054688 255.574219 89.4375 256.199219 88.757812 C 256.828125 88.078125 257.382812 87.34375 257.867188 86.554688 C 258.351562 85.765625 258.757812 84.9375 259.078125 84.066406 C 259.402344 83.199219 259.640625 82.308594 259.789062 81.394531 C 259.9375 80.480469 259.996094 79.5625 259.96875 78.636719 C 259.9375 77.710938 259.820312 76.796875 259.613281 75.894531 C 259.402344 74.992188 259.109375 74.117188 258.734375 73.273438 C 258.355469 72.429688 257.898438 71.628906 257.363281 70.871094 C 254.492188 67.101562 250.191406 64.941406 245.882812 64.941406 Z M 245.882812 64.957031 " fill-opacity="1" fill-rule="nonzero"/></svg>