<svg xmlns="http://www.w3.org/2000/svg" xmlns:xlink="http://www.w3.org/1999/xlink" width="392" zoomAndPan="magnify" viewBox="0 0 294 293.999989" height="392" preserveAspectRatio="xMidYMid meet" version="1.0"><path fill="#f2f2f2" d="M 247.828125 240.394531 L 46.425781 240.394531 C 38.558594 240.394531 31.972656 234.179688 31.972656 226.15625 L 31.972656 87.078125 C 31.972656 86.132812 32.066406 85.195312 32.253906 84.265625 C 32.441406 83.339844 32.714844 82.4375 33.082031 81.5625 C 33.445312 80.691406 33.890625 79.859375 34.417969 79.074219 C 34.945312 78.285156 35.542969 77.558594 36.214844 76.890625 C 36.886719 76.222656 37.617188 75.625 38.402344 75.097656 C 39.191406 74.574219 40.023438 74.128906 40.902344 73.765625 C 41.777344 73.402344 42.679688 73.128906 43.609375 72.945312 C 44.539062 72.757812 45.480469 72.667969 46.425781 72.664062 L 247.828125 72.664062 C 255.699219 72.664062 262.285156 79.132812 262.285156 87.09375 L 262.285156 225.976562 C 262.105469 234.195312 255.699219 240.402344 247.828125 240.402344 Z M 247.828125 240.394531 " fill-opacity="1" fill-rule="nonzero"/><path fill="#221f1f" d="M 60.765625 240.394531 L 146.933594 177.457031 L 147.480469 173.808594 L 58.605469 110.085938 L 58.425781 237.292969 Z M 60.765625 240.394531 " fill-opacity="0.098" fill-rule="nonzero"/><path fill="#d44c3d" d="M 46.425781 240.394531 C 38.449219 240.394531 31.972656 234.179688 31.972656 226.15625 L 31.972656 86.890625 C 31.972656 78.859375 38.449219 77.40625 46.425781 77.40625 C 54.402344 77.40625 60.882812 79.058594 60.882812 86.890625 L 60.882812 240.390625 Z M 46.425781 240.394531 " fill-opacity="1" fill-rule="nonzero"/><path fill="#d44c3d" d="M 46.425781 79.59375 C 56.671875 79.59375 58.6875 82.695312 58.6875 86.890625 L 58.6875 238.378906 L 46.425781 238.378906 C 39.660156 238.378906 34.167969 232.902344 34.167969 226.140625 L 34.167969 86.890625 C 33.988281 82.582031 36.183594 79.589844 46.425781 79.589844 Z M 46.425781 77.578125 C 38.449219 77.585938 31.972656 79.226562 31.972656 86.890625 L 31.972656 225.960938 C 31.957031 226.914062 32.039062 227.855469 32.214844 228.789062 C 32.390625 229.726562 32.660156 230.632812 33.015625 231.515625 C 33.375 232.394531 33.816406 233.234375 34.34375 234.027344 C 34.871094 234.820312 35.472656 235.550781 36.144531 236.222656 C 36.820312 236.898438 37.554688 237.496094 38.347656 238.019531 C 39.140625 238.546875 39.980469 238.988281 40.863281 239.347656 C 41.746094 239.703125 42.65625 239.96875 43.59375 240.144531 C 44.53125 240.320312 45.472656 240.402344 46.425781 240.390625 L 60.882812 240.390625 L 60.882812 86.890625 C 60.765625 79.046875 54.476562 77.585938 46.425781 77.585938 Z M 247.828125 79.59375 C 257.160156 79.59375 260.089844 81.417969 260.089844 86.53125 L 260.089844 226.335938 C 260.089844 233.089844 254.605469 238.570312 247.828125 238.570312 L 235.570312 238.570312 L 235.570312 86.53125 C 235.390625 81.238281 238.5 79.59375 247.828125 79.59375 Z M 247.828125 77.578125 C 239.78125 77.578125 233.375 78.671875 233.375 86.523438 L 233.375 240.570312 L 247.828125 240.570312 C 255.878906 240.570312 262.285156 234.101562 262.285156 226.140625 L 262.285156 86.34375 C 262.105469 78.492188 255.699219 77.578125 247.828125 77.578125 Z M 247.828125 77.578125 " fill-opacity="1" fill-rule="nonzero"/><path fill="#d44c3d" d="M 247.828125 240.394531 L 233.375 240.394531 L 233.375 86.53125 C 233.375 78.5 239.855469 77.585938 247.828125 77.585938 C 255.804688 77.585938 262.285156 78.679688 262.285156 86.53125 L 262.285156 226.335938 C 262.265625 227.269531 262.15625 228.191406 261.953125 229.101562 C 261.753906 230.011719 261.46875 230.898438 261.09375 231.753906 C 260.722656 232.609375 260.269531 233.421875 259.738281 234.1875 C 259.210938 234.957031 258.609375 235.667969 257.9375 236.316406 C 257.269531 236.96875 256.542969 237.550781 255.761719 238.058594 C 254.976562 238.570312 254.152344 239 253.285156 239.347656 C 252.417969 239.699219 251.527344 239.960938 250.609375 240.136719 C 249.691406 240.3125 248.765625 240.398438 247.828125 240.394531 Z M 247.828125 240.394531 " fill-opacity="1" fill-rule="nonzero"/><path fill="#221f1f" d="M 186.179688 240.394531 L 33.253906 93 L 41.300781 96.28125 L 147.839844 172.78125 L 262.277344 88.902344 L 262.277344 226.335938 C 262.273438 227.277344 262.175781 228.210938 261.988281 229.132812 C 261.800781 230.054688 261.523438 230.953125 261.160156 231.820312 C 260.792969 232.6875 260.34375 233.511719 259.816406 234.292969 C 259.289062 235.070312 258.6875 235.792969 258.015625 236.453125 C 257.34375 237.117188 256.613281 237.707031 255.824219 238.222656 C 255.039062 238.742188 254.207031 239.175781 253.332031 239.53125 C 252.457031 239.882812 251.554688 240.148438 250.628906 240.324219 C 249.703125 240.5 248.765625 240.585938 247.824219 240.574219 Z M 186.179688 240.394531 " fill-opacity="0.0784" fill-rule="nonzero"/><path fill="#d44c3d" d="M 146.863281 177.636719 L 38.191406 98.949219 C 31.714844 94.207031 29.957031 85.082031 34.714844 78.6875 C 39.472656 72.292969 48.609375 70.832031 55.203125 75.582031 L 147.035156 142.222656 L 239.414062 74.675781 C 245.894531 69.933594 254.785156 71.394531 259.535156 77.960938 C 264.285156 84.425781 262.824219 93.300781 256.246094 98.042969 Z M 146.863281 177.636719 " fill-opacity="1" fill-rule="nonzero"/><path fill="#d44c3d" d="M 247.828125 74.117188 C 251.675781 74.117188 255.511719 75.941406 257.894531 79.234375 C 261.738281 84.707031 260.628906 92.382812 255.15625 96.476562 L 146.863281 175.085938 L 39.472656 97.308594 C 33.988281 93.285156 32.519531 85.433594 36.292969 80.066406 C 38.488281 76.78125 42.339844 74.769531 46.535156 74.769531 C 49.269531 74.769531 51.839844 75.503906 53.847656 77.140625 L 145.488281 143.601562 L 146.769531 144.335938 L 148.050781 143.601562 L 240.335938 76.113281 C 242.710938 74.835938 245.085938 74.101562 247.835938 74.101562 Z M 247.828125 71.925781 C 244.898438 71.925781 241.78125 72.660156 239.40625 74.65625 L 147.035156 142.214844 L 55.023438 75.394531 C 52.648438 73.570312 49.535156 72.664062 46.425781 72.664062 C 41.855469 72.84375 37.285156 74.855469 34.535156 78.699219 C 29.964844 85.167969 31.800781 94.039062 38.191406 98.78125 L 146.863281 177.636719 L 256.246094 98.027344 C 257.007812 97.472656 257.707031 96.847656 258.347656 96.152344 C 258.988281 95.460938 259.554688 94.710938 260.050781 93.910156 C 260.542969 93.105469 260.953125 92.261719 261.285156 91.378906 C 261.613281 90.496094 261.855469 89.589844 262.007812 88.660156 C 262.160156 87.730469 262.21875 86.792969 262.191406 85.851562 C 262.160156 84.910156 262.039062 83.980469 261.828125 83.058594 C 261.613281 82.140625 261.316406 81.253906 260.929688 80.390625 C 260.542969 79.53125 260.078125 78.714844 259.535156 77.945312 C 256.605469 74.109375 252.222656 71.910156 247.828125 71.910156 Z M 247.828125 71.925781 " fill-opacity="1" fill-rule="nonzero"/></svg>