<svg xmlns="http://www.w3.org/2000/svg" xmlns:xlink="http://www.w3.org/1999/xlink" width="392" zoomAndPan="magnify" viewBox="0 0 294 293.999989" height="392" preserveAspectRatio="xMidYMid meet" version="1.0"><defs><clipPath id="76ce038c74"><path d="M 17.574219 20.105469 L 274.824219 20.105469 L 274.824219 270.605469 L 17.574219 270.605469 Z M 17.574219 20.105469 " clip-rule="nonzero"/></clipPath></defs><g clip-path="url(#76ce038c74)"><path fill="#0277b5" d="M 31.078125 20.109375 L 261.316406 20.109375 C 268.777344 20.109375 274.824219 26.15625 274.824219 33.617188 L 274.824219 257.097656 C 274.824219 264.554688 268.777344 270.601562 261.316406 270.601562 L 31.078125 270.601562 C 23.617188 270.601562 17.574219 264.554688 17.574219 257.097656 L 17.574219 33.617188 C 17.574219 26.15625 23.617188 20.109375 31.078125 20.109375 " fill-opacity="1" fill-rule="nonzero"/></g><path fill="#ffffff" d="M 269.4375 0 L 24.707031 0 C 11.175781 0 0.292969 11.03125 0.292969 24.414062 L 0.292969 269.585938 C 0.292969 283.117188 11.324219 294 24.707031 294 L 269.292969 294 C 282.824219 294 293.707031 282.96875 293.707031 269.585938 L 293.707031 24.414062 C 293.851562 11.03125 282.96875 0 269.4375 0 Z M 87.214844 242.523438 L 43.828125 242.523438 L 43.828125 112.21875 L 87.214844 112.21875 Z M 65.449219 96.480469 C 51.769531 96.480469 40.738281 85.449219 40.738281 71.773438 C 40.738281 58.09375 51.769531 47.0625 65.449219 47.0625 C 79.125 47.0625 90.15625 58.09375 90.15625 71.773438 C 90.15625 85.449219 79.125 96.480469 65.449219 96.480469 Z M 250.464844 242.523438 L 206.933594 242.523438 L 205.902344 165.164062 C 205.902344 165.164062 206.933594 144.574219 184.429688 144.71875 C 161.929688 144.867188 158.839844 165.164062 158.839844 165.164062 L 158.839844 242.523438 L 115.011719 242.523438 L 115.011719 112.21875 L 157.074219 112.21875 L 157.074219 130.160156 C 157.074219 130.160156 158.839844 124.277344 168.546875 117.363281 C 178.253906 110.453125 194.285156 108.980469 201.195312 109.277344 C 208.109375 109.570312 217.523438 108.394531 233.257812 119.277344 C 250.171875 130.894531 250.613281 161.339844 250.613281 161.339844 Z M 250.464844 242.523438 " fill-opacity="1" fill-rule="nonzero"/></svg>