<svg xmlns="http://www.w3.org/2000/svg" xmlns:xlink="http://www.w3.org/1999/xlink" width="392" zoomAndPan="magnify" viewBox="0 0 294 293.999989" height="392" preserveAspectRatio="xMidYMid meet" version="1.0"><defs><clipPath id="6821cfdcfb"><path d="M 29.398438 29.398438 L 264.898438 29.398438 L 264.898438 264.898438 L 29.398438 264.898438 Z M 29.398438 29.398438 " clip-rule="nonzero"/></clipPath></defs><g clip-path="url(#6821cfdcfb)"><path fill="#0277b5" d="M 245.226562 29.398438 L 49.191406 29.398438 C 38.351562 29.398438 29.636719 38.234375 29.636719 48.957031 L 29.636719 245.34375 C 29.636719 256.183594 38.472656 264.898438 49.191406 264.898438 L 245.109375 264.898438 C 255.945312 264.898438 264.664062 256.0625 264.664062 245.34375 L 264.664062 48.957031 C 264.78125 38.234375 256.0625 29.398438 245.226562 29.398438 Z M 99.261719 223.667969 L 64.507812 223.667969 L 64.507812 119.289062 L 99.261719 119.289062 Z M 81.824219 106.683594 C 70.867188 106.683594 62.03125 97.847656 62.03125 86.890625 C 62.03125 75.933594 70.867188 67.097656 81.824219 67.097656 C 92.78125 67.097656 101.617188 75.933594 101.617188 86.890625 C 101.617188 97.847656 92.78125 106.683594 81.824219 106.683594 Z M 230.027344 223.667969 L 195.15625 223.667969 L 194.332031 161.699219 C 194.332031 161.699219 195.15625 145.207031 177.132812 145.324219 C 159.109375 145.441406 156.632812 161.699219 156.632812 161.699219 L 156.632812 223.667969 L 121.527344 223.667969 L 121.527344 119.289062 L 155.21875 119.289062 L 155.21875 133.660156 C 155.21875 133.660156 156.632812 128.949219 164.410156 123.410156 C 172.183594 117.875 185.027344 116.695312 190.5625 116.933594 C 196.097656 117.167969 203.640625 116.226562 216.246094 124.941406 C 229.792969 134.25 230.144531 158.636719 230.144531 158.636719 Z M 230.027344 223.667969 " fill-opacity="1" fill-rule="nonzero"/></g></svg>