<svg xmlns="http://www.w3.org/2000/svg" xmlns:xlink="http://www.w3.org/1999/xlink" width="1400" zoomAndPan="magnify" viewBox="0 0 1050 293.999989" height="392" preserveAspectRatio="xMidYMid meet" version="1.0"><defs><g/><clipPath id="041bbc27d7"><path d="M 1014.824219 0.308594 L 1050 0.308594 L 1050 294 L 1014.824219 294 Z M 1014.824219 0.308594 " clip-rule="nonzero"/></clipPath><clipPath id="52a01e7b03"><path d="M 0 0 L 35.25 0 L 35.25 294 L 0 294 Z M 0 0 " clip-rule="nonzero"/></clipPath><clipPath id="cb23108230"><path d="M 17.589844 0 L 1032.339844 0 L 1032.339844 294 L 17.589844 294 Z M 17.589844 0 " clip-rule="nonzero"/></clipPath><linearGradient x1="1" gradientTransform="matrix(1014.74996, 0, 0, 1014.74996, 17.5885, -15.947879)" y1="0.5" x2="-0.00000000103755" gradientUnits="userSpaceOnUse" y2="0.5" id="3ac1b975f7"><stop stop-opacity="1" stop-color="rgb(19.999695%, 21.199036%, 27.099609%)" offset="0"/><stop stop-opacity="1" stop-color="rgb(20.024109%, 21.27533%, 27.272034%)" offset="0.0078125"/><stop stop-opacity="1" stop-color="rgb(20.072937%, 21.427917%, 27.618408%)" offset="0.015625"/><stop stop-opacity="1" stop-color="rgb(20.121765%, 21.582031%, 27.963257%)" offset="0.0234375"/><stop stop-opacity="1" stop-color="rgb(20.170593%, 21.734619%, 28.309631%)" offset="0.03125"/><stop stop-opacity="1" stop-color="rgb(20.220947%, 21.888733%, 28.656006%)" offset="0.0390625"/><stop stop-opacity="1" stop-color="rgb(20.269775%, 22.041321%, 29.00238%)" offset="0.046875"/><stop stop-opacity="1" stop-color="rgb(20.318604%, 22.193909%, 29.348755%)" offset="0.0546875"/><stop stop-opacity="1" stop-color="rgb(20.367432%, 22.348022%, 29.693604%)" offset="0.0625"/><stop stop-opacity="1" stop-color="rgb(20.417786%, 22.50061%, 30.039978%)" offset="0.0703125"/><stop stop-opacity="1" stop-color="rgb(20.466614%, 22.653198%, 30.386353%)" offset="0.078125"/><stop stop-opacity="1" stop-color="rgb(20.515442%, 22.807312%, 30.732727%)" offset="0.0859375"/><stop stop-opacity="1" stop-color="rgb(20.565796%, 22.9599%, 31.079102%)" offset="0.09375"/><stop stop-opacity="1" stop-color="rgb(20.614624%, 23.112488%, 31.425476%)" offset="0.101562"/><stop stop-opacity="1" stop-color="rgb(20.663452%, 23.266602%, 31.770325%)" offset="0.109375"/><stop stop-opacity="1" stop-color="rgb(20.71228%, 23.419189%, 32.116699%)" offset="0.117188"/><stop stop-opacity="1" stop-color="rgb(20.762634%, 23.571777%, 32.463074%)" offset="0.125"/><stop stop-opacity="1" stop-color="rgb(20.811462%, 23.725891%, 32.809448%)" offset="0.132812"/><stop stop-opacity="1" stop-color="rgb(20.860291%, 23.878479%, 33.155823%)" offset="0.140625"/><stop stop-opacity="1" stop-color="rgb(20.909119%, 24.031067%, 33.500671%)" offset="0.148438"/><stop stop-opacity="1" stop-color="rgb(20.959473%, 24.185181%, 33.847046%)" offset="0.15625"/><stop stop-opacity="1" stop-color="rgb(21.008301%, 24.337769%, 34.19342%)" offset="0.164062"/><stop stop-opacity="1" stop-color="rgb(21.057129%, 24.491882%, 34.539795%)" offset="0.171875"/><stop stop-opacity="1" stop-color="rgb(21.105957%, 24.64447%, 34.886169%)" offset="0.179688"/><stop stop-opacity="1" stop-color="rgb(21.156311%, 24.797058%, 35.232544%)" offset="0.1875"/><stop stop-opacity="1" stop-color="rgb(21.205139%, 24.951172%, 35.577393%)" offset="0.195312"/><stop stop-opacity="1" stop-color="rgb(21.253967%, 25.10376%, 35.923767%)" offset="0.203125"/><stop stop-opacity="1" stop-color="rgb(21.302795%, 25.256348%, 36.270142%)" offset="0.210938"/><stop stop-opacity="1" stop-color="rgb(21.353149%, 25.410461%, 36.616516%)" offset="0.21875"/><stop stop-opacity="1" stop-color="rgb(21.401978%, 25.563049%, 36.962891%)" offset="0.226562"/><stop stop-opacity="1" stop-color="rgb(21.450806%, 25.715637%, 37.307739%)" offset="0.234375"/><stop stop-opacity="1" stop-color="rgb(21.499634%, 25.869751%, 37.654114%)" offset="0.242188"/><stop stop-opacity="1" stop-color="rgb(21.549988%, 26.022339%, 38.000488%)" offset="0.25"/><stop stop-opacity="1" stop-color="rgb(21.598816%, 26.174927%, 38.346863%)" offset="0.257812"/><stop stop-opacity="1" stop-color="rgb(21.647644%, 26.329041%, 38.693237%)" offset="0.265625"/><stop stop-opacity="1" stop-color="rgb(21.696472%, 26.481628%, 39.039612%)" offset="0.273438"/><stop stop-opacity="1" stop-color="rgb(21.746826%, 26.634216%, 39.38446%)" offset="0.28125"/><stop stop-opacity="1" stop-color="rgb(21.795654%, 26.78833%, 39.730835%)" offset="0.289062"/><stop stop-opacity="1" stop-color="rgb(21.844482%, 26.940918%, 40.077209%)" offset="0.296875"/><stop stop-opacity="1" stop-color="rgb(21.893311%, 27.095032%, 40.423584%)" offset="0.304688"/><stop stop-opacity="1" stop-color="rgb(21.943665%, 27.24762%, 40.769958%)" offset="0.3125"/><stop stop-opacity="1" stop-color="rgb(21.992493%, 27.400208%, 41.114807%)" offset="0.320312"/><stop stop-opacity="1" stop-color="rgb(22.041321%, 27.554321%, 41.461182%)" offset="0.328125"/><stop stop-opacity="1" stop-color="rgb(22.090149%, 27.706909%, 41.807556%)" offset="0.335938"/><stop stop-opacity="1" stop-color="rgb(22.140503%, 27.859497%, 42.153931%)" offset="0.34375"/><stop stop-opacity="1" stop-color="rgb(22.189331%, 28.013611%, 42.500305%)" offset="0.351562"/><stop stop-opacity="1" stop-color="rgb(22.238159%, 28.166199%, 42.845154%)" offset="0.359375"/><stop stop-opacity="1" stop-color="rgb(22.286987%, 28.318787%, 43.191528%)" offset="0.367188"/><stop stop-opacity="1" stop-color="rgb(22.337341%, 28.4729%, 43.537903%)" offset="0.375"/><stop stop-opacity="1" stop-color="rgb(22.386169%, 28.625488%, 43.884277%)" offset="0.382812"/><stop stop-opacity="1" stop-color="rgb(22.434998%, 28.778076%, 44.230652%)" offset="0.390625"/><stop stop-opacity="1" stop-color="rgb(22.485352%, 28.93219%, 44.577026%)" offset="0.398438"/><stop stop-opacity="1" stop-color="rgb(22.53418%, 29.084778%, 44.921875%)" offset="0.40625"/><stop stop-opacity="1" stop-color="rgb(22.583008%, 29.237366%, 45.26825%)" offset="0.414062"/><stop stop-opacity="1" stop-color="rgb(22.631836%, 29.391479%, 45.614624%)" offset="0.421875"/><stop stop-opacity="1" stop-color="rgb(22.68219%, 29.544067%, 45.960999%)" offset="0.429688"/><stop stop-opacity="1" stop-color="rgb(22.731018%, 29.696655%, 46.307373%)" offset="0.4375"/><stop stop-opacity="1" stop-color="rgb(22.779846%, 29.850769%, 46.652222%)" offset="0.445312"/><stop stop-opacity="1" stop-color="rgb(22.828674%, 30.003357%, 46.998596%)" offset="0.453125"/><stop stop-opacity="1" stop-color="rgb(22.879028%, 30.157471%, 47.344971%)" offset="0.460938"/><stop stop-opacity="1" stop-color="rgb(22.927856%, 30.310059%, 47.691345%)" offset="0.46875"/><stop stop-opacity="1" stop-color="rgb(22.976685%, 30.462646%, 48.03772%)" offset="0.476562"/><stop stop-opacity="1" stop-color="rgb(23.025513%, 30.61676%, 48.384094%)" offset="0.484375"/><stop stop-opacity="1" stop-color="rgb(23.075867%, 30.769348%, 48.728943%)" offset="0.492188"/><stop stop-opacity="1" stop-color="rgb(23.124695%, 30.921936%, 49.075317%)" offset="0.5"/><stop stop-opacity="1" stop-color="rgb(23.173523%, 31.07605%, 49.421692%)" offset="0.507812"/><stop stop-opacity="1" stop-color="rgb(23.222351%, 31.228638%, 49.768066%)" offset="0.515625"/><stop stop-opacity="1" stop-color="rgb(23.272705%, 31.381226%, 50.114441%)" offset="0.523437"/><stop stop-opacity="1" stop-color="rgb(23.321533%, 31.535339%, 50.45929%)" offset="0.53125"/><stop stop-opacity="1" stop-color="rgb(23.370361%, 31.687927%, 50.805664%)" offset="0.539062"/><stop stop-opacity="1" stop-color="rgb(23.419189%, 31.840515%, 51.152039%)" offset="0.546875"/><stop stop-opacity="1" stop-color="rgb(23.469543%, 31.994629%, 51.498413%)" offset="0.554688"/><stop stop-opacity="1" stop-color="rgb(23.518372%, 32.147217%, 51.844788%)" offset="0.5625"/><stop stop-opacity="1" stop-color="rgb(23.5672%, 32.299805%, 52.191162%)" offset="0.570312"/><stop stop-opacity="1" stop-color="rgb(23.616028%, 32.453918%, 52.536011%)" offset="0.578125"/><stop stop-opacity="1" stop-color="rgb(23.666382%, 32.606506%, 52.882385%)" offset="0.585938"/><stop stop-opacity="1" stop-color="rgb(23.71521%, 32.76062%, 53.22876%)" offset="0.59375"/><stop stop-opacity="1" stop-color="rgb(23.764038%, 32.913208%, 53.575134%)" offset="0.601562"/><stop stop-opacity="1" stop-color="rgb(23.812866%, 33.065796%, 53.921509%)" offset="0.609375"/><stop stop-opacity="1" stop-color="rgb(23.86322%, 33.21991%, 54.266357%)" offset="0.617187"/><stop stop-opacity="1" stop-color="rgb(23.912048%, 33.372498%, 54.612732%)" offset="0.625"/><stop stop-opacity="1" stop-color="rgb(23.960876%, 33.525085%, 54.959106%)" offset="0.632813"/><stop stop-opacity="1" stop-color="rgb(24.009705%, 33.679199%, 55.305481%)" offset="0.640625"/><stop stop-opacity="1" stop-color="rgb(24.060059%, 33.831787%, 55.651855%)" offset="0.648438"/><stop stop-opacity="1" stop-color="rgb(24.108887%, 33.984375%, 55.996704%)" offset="0.65625"/><stop stop-opacity="1" stop-color="rgb(24.157715%, 34.138489%, 56.343079%)" offset="0.664062"/><stop stop-opacity="1" stop-color="rgb(24.206543%, 34.291077%, 56.689453%)" offset="0.671875"/><stop stop-opacity="1" stop-color="rgb(24.256897%, 34.443665%, 57.035828%)" offset="0.679688"/><stop stop-opacity="1" stop-color="rgb(24.305725%, 34.597778%, 57.382202%)" offset="0.6875"/><stop stop-opacity="1" stop-color="rgb(24.354553%, 34.750366%, 57.728577%)" offset="0.695312"/><stop stop-opacity="1" stop-color="rgb(24.403381%, 34.902954%, 58.073425%)" offset="0.703125"/><stop stop-opacity="1" stop-color="rgb(24.453735%, 35.057068%, 58.4198%)" offset="0.710938"/><stop stop-opacity="1" stop-color="rgb(24.502563%, 35.209656%, 58.766174%)" offset="0.71875"/><stop stop-opacity="1" stop-color="rgb(24.551392%, 35.36377%, 59.112549%)" offset="0.726563"/><stop stop-opacity="1" stop-color="rgb(24.601746%, 35.516357%, 59.458923%)" offset="0.734375"/><stop stop-opacity="1" stop-color="rgb(24.650574%, 35.668945%, 59.803772%)" offset="0.742188"/><stop stop-opacity="1" stop-color="rgb(24.699402%, 35.823059%, 60.150146%)" offset="0.75"/><stop stop-opacity="1" stop-color="rgb(24.74823%, 35.975647%, 60.496521%)" offset="0.757812"/><stop stop-opacity="1" stop-color="rgb(24.798584%, 36.128235%, 60.842896%)" offset="0.765625"/><stop stop-opacity="1" stop-color="rgb(24.847412%, 36.282349%, 61.18927%)" offset="0.773437"/><stop stop-opacity="1" stop-color="rgb(24.89624%, 36.434937%, 61.535645%)" offset="0.78125"/><stop stop-opacity="1" stop-color="rgb(24.945068%, 36.587524%, 61.880493%)" offset="0.789062"/><stop stop-opacity="1" stop-color="rgb(24.995422%, 36.741638%, 62.226868%)" offset="0.796875"/><stop stop-opacity="1" stop-color="rgb(25.04425%, 36.894226%, 62.573242%)" offset="0.804688"/><stop stop-opacity="1" stop-color="rgb(25.093079%, 37.046814%, 62.919617%)" offset="0.8125"/><stop stop-opacity="1" stop-color="rgb(25.141907%, 37.200928%, 63.265991%)" offset="0.820312"/><stop stop-opacity="1" stop-color="rgb(25.192261%, 37.353516%, 63.61084%)" offset="0.828125"/><stop stop-opacity="1" stop-color="rgb(25.241089%, 37.506104%, 63.957214%)" offset="0.835938"/><stop stop-opacity="1" stop-color="rgb(25.289917%, 37.660217%, 64.303589%)" offset="0.84375"/><stop stop-opacity="1" stop-color="rgb(25.338745%, 37.812805%, 64.649963%)" offset="0.851562"/><stop stop-opacity="1" stop-color="rgb(25.389099%, 37.966919%, 64.996338%)" offset="0.859375"/><stop stop-opacity="1" stop-color="rgb(25.437927%, 38.119507%, 65.342712%)" offset="0.867187"/><stop stop-opacity="1" stop-color="rgb(25.486755%, 38.272095%, 65.687561%)" offset="0.875"/><stop stop-opacity="1" stop-color="rgb(25.535583%, 38.426208%, 66.033936%)" offset="0.882813"/><stop stop-opacity="1" stop-color="rgb(25.585938%, 38.578796%, 66.38031%)" offset="0.890625"/><stop stop-opacity="1" stop-color="rgb(25.634766%, 38.731384%, 66.726685%)" offset="0.898438"/><stop stop-opacity="1" stop-color="rgb(25.683594%, 38.885498%, 67.073059%)" offset="0.90625"/><stop stop-opacity="1" stop-color="rgb(25.732422%, 39.038086%, 67.417908%)" offset="0.914062"/><stop stop-opacity="1" stop-color="rgb(25.782776%, 39.190674%, 67.764282%)" offset="0.921875"/><stop stop-opacity="1" stop-color="rgb(25.831604%, 39.344788%, 68.110657%)" offset="0.929688"/><stop stop-opacity="1" stop-color="rgb(25.880432%, 39.497375%, 68.457031%)" offset="0.9375"/><stop stop-opacity="1" stop-color="rgb(25.92926%, 39.649963%, 68.803406%)" offset="0.945312"/><stop stop-opacity="1" stop-color="rgb(25.979614%, 39.804077%, 69.148254%)" offset="0.953125"/><stop stop-opacity="1" stop-color="rgb(26.028442%, 39.956665%, 69.494629%)" offset="0.960938"/><stop stop-opacity="1" stop-color="rgb(26.077271%, 40.109253%, 69.841003%)" offset="0.96875"/><stop stop-opacity="1" stop-color="rgb(26.126099%, 40.263367%, 70.187378%)" offset="0.976563"/><stop stop-opacity="1" stop-color="rgb(26.176453%, 40.415955%, 70.533752%)" offset="0.984375"/><stop stop-opacity="1" stop-color="rgb(26.225281%, 40.568542%, 70.880127%)" offset="0.992188"/><stop stop-opacity="1" stop-color="rgb(26.274109%, 40.722656%, 71.224976%)" offset="1"/></linearGradient><clipPath id="dba03725d7"><path d="M 137.019531 192.050781 L 219.519531 192.050781 L 219.519531 222.050781 L 137.019531 222.050781 Z M 137.019531 192.050781 " clip-rule="nonzero"/></clipPath><clipPath id="fadef4a081"><path d="M 198.40625 192.339844 L 252.40625 192.339844 L 252.40625 222.339844 L 198.40625 222.339844 Z M 198.40625 192.339844 " clip-rule="nonzero"/></clipPath></defs><g clip-path="url(#041bbc27d7)"><path fill="#333645" d="M 1028.351562 0.347656 L 1036.542969 0.347656 C 1044.015625 0.347656 1050.074219 6.390625 1050.074219 13.84375 L 1050.074219 280.777344 C 1050.074219 288.230469 1044.015625 294.273438 1036.542969 294.273438 L 1028.351562 294.273438 C 1020.878906 294.273438 1014.824219 288.230469 1014.824219 280.777344 L 1014.824219 13.84375 C 1014.824219 6.390625 1020.878906 0.347656 1028.351562 0.347656 " fill-opacity="1" fill-rule="nonzero"/></g><g clip-path="url(#52a01e7b03)"><path fill="#4368b6" d="M 13.527344 0.0390625 L 21.722656 0.0390625 C 29.191406 0.0390625 35.25 6.082031 35.25 13.535156 L 35.25 280.464844 C 35.25 287.917969 29.191406 293.960938 21.722656 293.960938 L 13.527344 293.960938 C 6.058594 293.960938 0 287.917969 0 280.464844 L 0 13.535156 C 0 6.082031 6.058594 0.0390625 13.527344 0.0390625 " fill-opacity="1" fill-rule="nonzero"/></g><g clip-path="url(#cb23108230)"><path fill="url(#3ac1b975f7)" d="M 17.589844 0 L 17.589844 294 L 1032.339844 294 L 1032.339844 0 Z M 17.589844 0 " fill-rule="nonzero"/></g><g fill="#ffffff" fill-opacity="1"><g transform="translate(336.039867, 202.83441)"><g><path d="M 11.984375 -101.390625 C 27.484375 -102.734375 40.578125 -103.40625 51.265625 -103.40625 C 61.953125 -103.40625 70.132812 -100.394531 75.8125 -94.375 C 81.5 -88.363281 84.34375 -79.484375 84.34375 -67.734375 C 84.34375 -53.484375 80.539062 -43.519531 72.9375 -37.84375 C 66.382812 -33.03125 58.148438 -30.625 48.234375 -30.625 L 34.65625 -31.046875 L 34.65625 0 L 11.984375 0 L 12.5625 -47.375 Z M 57.765625 -83.046875 C 56.421875 -84.390625 53.242188 -85.0625 48.234375 -85.0625 C 43.234375 -85.0625 38.707031 -84.820312 34.65625 -84.34375 L 34.65625 -50.6875 C 38.707031 -50.019531 43.1875 -49.6875 48.09375 -49.6875 C 53 -49.6875 56.367188 -50.523438 58.203125 -52.203125 C 60.035156 -53.890625 60.953125 -58.96875 60.953125 -67.4375 C 60.953125 -75.914062 59.890625 -81.117188 57.765625 -83.046875 Z M 57.765625 -83.046875 "/></g></g></g><g fill="#ffffff" fill-opacity="1"><g transform="translate(425.724883, 202.83441)"><g><path d="M 15.53125 -75.453125 C 21.257812 -83.015625 30.863281 -86.796875 44.34375 -86.796875 C 57.820312 -86.796875 67.375 -83.039062 73 -75.53125 C 78.632812 -68.019531 81.453125 -56.992188 81.453125 -42.453125 C 81.453125 -27.921875 78.632812 -16.898438 73 -9.390625 C 67.375 -1.878906 57.820312 1.875 44.34375 1.875 C 30.863281 1.875 21.257812 -1.898438 15.53125 -9.453125 C 9.800781 -17.015625 6.9375 -28.015625 6.9375 -42.453125 C 6.9375 -56.898438 9.800781 -67.898438 15.53125 -75.453125 Z M 58.640625 -42.453125 C 58.640625 -53.429688 57.648438 -60.722656 55.671875 -64.328125 C 53.703125 -67.941406 49.898438 -69.75 44.265625 -69.75 C 38.628906 -69.75 34.800781 -67.921875 32.78125 -64.265625 C 30.757812 -60.609375 29.75 -53.335938 29.75 -42.453125 C 29.75 -31.578125 30.757812 -24.3125 32.78125 -20.65625 C 34.800781 -17 38.628906 -15.171875 44.265625 -15.171875 C 49.898438 -15.171875 53.703125 -16.972656 55.671875 -20.578125 C 57.648438 -24.191406 58.640625 -31.484375 58.640625 -42.453125 Z M 58.640625 -42.453125 "/></g></g></g><g fill="#ffffff" fill-opacity="1"><g transform="translate(514.110118, 202.83441)"><g><path d="M 32.84375 -78.921875 C 34.4375 -80.128906 37.28125 -81.742188 41.375 -83.765625 C 45.46875 -85.785156 49.316406 -86.796875 52.921875 -86.796875 C 56.535156 -86.796875 59.40625 -86.265625 61.53125 -85.203125 L 59.796875 -65.859375 C 57.097656 -66.148438 54.445312 -66.296875 51.84375 -66.296875 C 45.394531 -66.296875 39.378906 -64.5625 33.796875 -61.09375 L 33.796875 0 L 11.40625 0 L 11.40625 -84.921875 L 25.28125 -84.921875 L 28.15625 -75.96875 L 29.03125 -75.96875 C 29.988281 -76.738281 31.257812 -77.722656 32.84375 -78.921875 Z M 32.84375 -78.921875 "/></g></g></g><g fill="#ffffff" fill-opacity="1"><g transform="translate(576.210848, 202.83441)"><g><path d="M 35.8125 -80.734375 L 53.140625 -80.734375 L 53.140625 -63.546875 L 35.53125 -63.546875 L 35.53125 -27.875 C 35.53125 -23.25 35.960938 -20.3125 36.828125 -19.0625 C 37.691406 -17.8125 39.328125 -17.1875 41.734375 -17.1875 L 52.859375 -17.90625 L 52.859375 0.28125 C 48.140625 1.34375 42.941406 1.875 37.265625 1.875 C 28.890625 1.875 22.773438 -0.21875 18.921875 -4.40625 C 15.066406 -8.59375 13.140625 -16.609375 13.140625 -28.453125 L 13.140625 -63.984375 L 3.328125 -63.984375 L 3.328125 -77.984375 L 14.15625 -80.015625 L 17.46875 -100.078125 L 35.8125 -100.078125 Z M 35.8125 -80.734375 "/></g></g></g><g fill="#ffffff" fill-opacity="1"><g transform="translate(633.978983, 202.83441)"><g><path d="M 55.3125 -80.734375 L 55.3125 -63.546875 L 36.25 -63.546875 L 36.25 0 L 13.859375 0 L 13.859375 -63.984375 L 4.046875 -63.984375 L 4.046875 -77.984375 L 14.015625 -80.015625 C 14.878906 -91.753906 17.984375 -99.984375 23.328125 -104.703125 C 28.671875 -109.421875 35.960938 -111.78125 45.203125 -111.78125 L 58.34375 -111.203125 L 56.75 -93.4375 C 52.226562 -93.820312 48.28125 -94.015625 44.90625 -94.015625 C 41.539062 -94.015625 39.28125 -93.242188 38.125 -91.703125 C 36.96875 -90.160156 36.34375 -86.503906 36.25 -80.734375 Z M 55.3125 -80.734375 "/></g></g></g><g fill="#ffffff" fill-opacity="1"><g transform="translate(689.147532, 202.83441)"><g><path d="M 15.53125 -75.453125 C 21.257812 -83.015625 30.863281 -86.796875 44.34375 -86.796875 C 57.820312 -86.796875 67.375 -83.039062 73 -75.53125 C 78.632812 -68.019531 81.453125 -56.992188 81.453125 -42.453125 C 81.453125 -27.921875 78.632812 -16.898438 73 -9.390625 C 67.375 -1.878906 57.820312 1.875 44.34375 1.875 C 30.863281 1.875 21.257812 -1.898438 15.53125 -9.453125 C 9.800781 -17.015625 6.9375 -28.015625 6.9375 -42.453125 C 6.9375 -56.898438 9.800781 -67.898438 15.53125 -75.453125 Z M 58.640625 -42.453125 C 58.640625 -53.429688 57.648438 -60.722656 55.671875 -64.328125 C 53.703125 -67.941406 49.898438 -69.75 44.265625 -69.75 C 38.628906 -69.75 34.800781 -67.921875 32.78125 -64.265625 C 30.757812 -60.609375 29.75 -53.335938 29.75 -42.453125 C 29.75 -31.578125 30.757812 -24.3125 32.78125 -20.65625 C 34.800781 -17 38.628906 -15.171875 44.265625 -15.171875 C 49.898438 -15.171875 53.703125 -16.972656 55.671875 -20.578125 C 57.648438 -24.191406 58.640625 -31.484375 58.640625 -42.453125 Z M 63.828125 -117.84375 L 68.3125 -101.671875 L 24.703125 -93.296875 L 21.515625 -105.28125 Z M 63.828125 -117.84375 "/></g></g></g><g fill="#ffffff" fill-opacity="1"><g transform="translate(777.532788, 202.83441)"><g><path d="M 33.078125 0 L 10.6875 0 L 10.6875 -109.90625 L 33.078125 -109.90625 Z M 33.078125 0 "/></g></g></g><g fill="#ffffff" fill-opacity="1"><g transform="translate(821.292122, 202.83441)"><g><path d="M 34.515625 0 L 12.125 0 L 12.125 -84.921875 L 34.515625 -84.921875 Z M 35.96875 -94.890625 L 10.6875 -94.890625 L 10.6875 -109.90625 L 35.96875 -109.90625 Z M 35.96875 -94.890625 "/></g></g></g><g fill="#ffffff" fill-opacity="1"><g transform="translate(867.939876, 202.83441)"><g><path d="M 15.53125 -75.453125 C 21.257812 -83.015625 30.863281 -86.796875 44.34375 -86.796875 C 57.820312 -86.796875 67.375 -83.039062 73 -75.53125 C 78.632812 -68.019531 81.453125 -56.992188 81.453125 -42.453125 C 81.453125 -27.921875 78.632812 -16.898438 73 -9.390625 C 67.375 -1.878906 57.820312 1.875 44.34375 1.875 C 30.863281 1.875 21.257812 -1.898438 15.53125 -9.453125 C 9.800781 -17.015625 6.9375 -28.015625 6.9375 -42.453125 C 6.9375 -56.898438 9.800781 -67.898438 15.53125 -75.453125 Z M 58.640625 -42.453125 C 58.640625 -53.429688 57.648438 -60.722656 55.671875 -64.328125 C 53.703125 -67.941406 49.898438 -69.75 44.265625 -69.75 C 38.628906 -69.75 34.800781 -67.921875 32.78125 -64.265625 C 30.757812 -60.609375 29.75 -53.335938 29.75 -42.453125 C 29.75 -31.578125 30.757812 -24.3125 32.78125 -20.65625 C 34.800781 -17 38.628906 -15.171875 44.265625 -15.171875 C 49.898438 -15.171875 53.703125 -16.972656 55.671875 -20.578125 C 57.648438 -24.191406 58.640625 -31.484375 58.640625 -42.453125 Z M 58.640625 -42.453125 "/></g></g></g><path fill="#ffffff" d="M 93.441406 70.921875 C 97.921875 70.921875 100.910156 72.414062 103.898438 75.40625 L 163.644531 135.191406 C 169.617188 141.171875 169.617188 150.140625 163.644531 156.117188 L 103.898438 215.90625 C 97.921875 221.886719 88.960938 221.886719 82.988281 215.90625 C 77.011719 209.929688 77.011719 200.960938 82.988281 194.980469 L 132.277344 145.65625 L 82.988281 96.332031 C 77.011719 90.351562 77.011719 81.382812 82.988281 75.40625 C 85.972656 72.414062 88.960938 70.921875 93.441406 70.921875 Z M 93.441406 70.921875 " fill-opacity="1" fill-rule="nonzero"/><g clip-path="url(#dba03725d7)"><path fill="#ffffff" d="M 137.90625 202.054688 C 137.378906 203.59375 137.03125 205.339844 137.03125 207.058594 C 137.03125 208.773438 137.328125 210.425781 137.855469 211.945312 C 137.875 211.980469 137.875 212.011719 137.890625 212.042969 C 140.003906 217.757812 145.589844 221.96875 153.117188 222.050781 L 219.511719 222.050781 L 219.511719 192.050781 L 153.164062 192.050781 C 145.554688 192.128906 139.972656 196.273438 137.90625 202.054688 " fill-opacity="1" fill-rule="nonzero"/></g><g clip-path="url(#fadef4a081)"><path fill="#ffffff" d="M 251.523438 212.335938 C 252.054688 210.796875 252.402344 209.050781 252.402344 207.332031 C 252.402344 205.617188 252.101562 203.964844 251.570312 202.445312 C 251.554688 202.410156 251.554688 202.378906 251.539062 202.347656 C 249.414062 196.632812 243.804688 192.421875 236.882812 192.339844 L 198.414062 192.339844 L 198.414062 222.339844 L 236.855469 222.339844 C 243.839844 222.261719 249.449219 218.117188 251.523438 212.335938 " fill-opacity="1" fill-rule="nonzero"/></g></svg>