<svg xmlns="http://www.w3.org/2000/svg" xmlns:xlink="http://www.w3.org/1999/xlink" width="1400" zoomAndPan="magnify" viewBox="0 0 1050 293.999989" height="392" preserveAspectRatio="xMidYMid meet" version="1.0"><defs><g/><clipPath id="c87d4e1e49"><path d="M 756.308594 0.308594 L 1050 0.308594 L 1050 294 L 756.308594 294 Z M 756.308594 0.308594 " clip-rule="nonzero"/></clipPath><clipPath id="98bc946586"><path d="M 280.902344 0 L 1032.121094 0 L 1032.121094 294 L 280.902344 294 Z M 280.902344 0 " clip-rule="nonzero"/></clipPath><linearGradient x1="1" gradientTransform="matrix(-751.499971, 0, 0, 751.499971, 1032.4022, -8.82007)" y1="0.5" x2="0.00037436" gradientUnits="userSpaceOnUse" y2="0.5" id="9dab809074"><stop stop-opacity="1" stop-color="rgb(26.298523%, 40.79895%, 71.398926%)" offset="0"/><stop stop-opacity="1" stop-color="rgb(26.274109%, 40.722656%, 71.224976%)" offset="0.0078125"/><stop stop-opacity="1" stop-color="rgb(26.225281%, 40.570068%, 70.880127%)" offset="0.015625"/><stop stop-opacity="1" stop-color="rgb(26.176453%, 40.415955%, 70.533752%)" offset="0.0234375"/><stop stop-opacity="1" stop-color="rgb(26.126099%, 40.263367%, 70.187378%)" offset="0.03125"/><stop stop-opacity="1" stop-color="rgb(26.077271%, 40.110779%, 69.842529%)" offset="0.0390625"/><stop stop-opacity="1" stop-color="rgb(26.028442%, 39.956665%, 69.496155%)" offset="0.046875"/><stop stop-opacity="1" stop-color="rgb(25.979614%, 39.804077%, 69.14978%)" offset="0.0546875"/><stop stop-opacity="1" stop-color="rgb(25.930786%, 39.651489%, 68.803406%)" offset="0.0625"/><stop stop-opacity="1" stop-color="rgb(25.880432%, 39.497375%, 68.458557%)" offset="0.0703125"/><stop stop-opacity="1" stop-color="rgb(25.831604%, 39.344788%, 68.112183%)" offset="0.078125"/><stop stop-opacity="1" stop-color="rgb(25.782776%, 39.1922%, 67.765808%)" offset="0.0859375"/><stop stop-opacity="1" stop-color="rgb(25.733948%, 39.038086%, 67.419434%)" offset="0.09375"/><stop stop-opacity="1" stop-color="rgb(25.683594%, 38.885498%, 67.074585%)" offset="0.101562"/><stop stop-opacity="1" stop-color="rgb(25.634766%, 38.73291%, 66.72821%)" offset="0.109375"/><stop stop-opacity="1" stop-color="rgb(25.585938%, 38.578796%, 66.381836%)" offset="0.117188"/><stop stop-opacity="1" stop-color="rgb(25.537109%, 38.426208%, 66.036987%)" offset="0.125"/><stop stop-opacity="1" stop-color="rgb(25.486755%, 38.273621%, 65.690613%)" offset="0.132812"/><stop stop-opacity="1" stop-color="rgb(25.437927%, 38.121033%, 65.344238%)" offset="0.140625"/><stop stop-opacity="1" stop-color="rgb(25.389099%, 37.966919%, 64.997864%)" offset="0.148438"/><stop stop-opacity="1" stop-color="rgb(25.340271%, 37.814331%, 64.653015%)" offset="0.15625"/><stop stop-opacity="1" stop-color="rgb(25.289917%, 37.661743%, 64.306641%)" offset="0.164062"/><stop stop-opacity="1" stop-color="rgb(25.241089%, 37.507629%, 63.960266%)" offset="0.171875"/><stop stop-opacity="1" stop-color="rgb(25.192261%, 37.355042%, 63.613892%)" offset="0.179688"/><stop stop-opacity="1" stop-color="rgb(25.143433%, 37.202454%, 63.269043%)" offset="0.1875"/><stop stop-opacity="1" stop-color="rgb(25.093079%, 37.04834%, 62.922668%)" offset="0.195312"/><stop stop-opacity="1" stop-color="rgb(25.04425%, 36.895752%, 62.576294%)" offset="0.203125"/><stop stop-opacity="1" stop-color="rgb(24.995422%, 36.743164%, 62.229919%)" offset="0.210938"/><stop stop-opacity="1" stop-color="rgb(24.946594%, 36.58905%, 61.885071%)" offset="0.21875"/><stop stop-opacity="1" stop-color="rgb(24.89624%, 36.436462%, 61.538696%)" offset="0.226562"/><stop stop-opacity="1" stop-color="rgb(24.847412%, 36.283875%, 61.192322%)" offset="0.234375"/><stop stop-opacity="1" stop-color="rgb(24.798584%, 36.129761%, 60.847473%)" offset="0.242188"/><stop stop-opacity="1" stop-color="rgb(24.749756%, 35.977173%, 60.501099%)" offset="0.25"/><stop stop-opacity="1" stop-color="rgb(24.699402%, 35.824585%, 60.154724%)" offset="0.257812"/><stop stop-opacity="1" stop-color="rgb(24.650574%, 35.670471%, 59.80835%)" offset="0.265625"/><stop stop-opacity="1" stop-color="rgb(24.601746%, 35.517883%, 59.463501%)" offset="0.273437"/><stop stop-opacity="1" stop-color="rgb(24.552917%, 35.365295%, 59.117126%)" offset="0.28125"/><stop stop-opacity="1" stop-color="rgb(24.502563%, 35.212708%, 58.770752%)" offset="0.289063"/><stop stop-opacity="1" stop-color="rgb(24.453735%, 35.058594%, 58.424377%)" offset="0.296875"/><stop stop-opacity="1" stop-color="rgb(24.404907%, 34.906006%, 58.079529%)" offset="0.304688"/><stop stop-opacity="1" stop-color="rgb(24.356079%, 34.753418%, 57.733154%)" offset="0.3125"/><stop stop-opacity="1" stop-color="rgb(24.305725%, 34.599304%, 57.38678%)" offset="0.320312"/><stop stop-opacity="1" stop-color="rgb(24.256897%, 34.446716%, 57.040405%)" offset="0.328125"/><stop stop-opacity="1" stop-color="rgb(24.208069%, 34.294128%, 56.695557%)" offset="0.335937"/><stop stop-opacity="1" stop-color="rgb(24.159241%, 34.140015%, 56.349182%)" offset="0.34375"/><stop stop-opacity="1" stop-color="rgb(24.108887%, 33.987427%, 56.002808%)" offset="0.351563"/><stop stop-opacity="1" stop-color="rgb(24.060059%, 33.834839%, 55.657959%)" offset="0.359375"/><stop stop-opacity="1" stop-color="rgb(24.01123%, 33.680725%, 55.311584%)" offset="0.367188"/><stop stop-opacity="1" stop-color="rgb(23.962402%, 33.528137%, 54.96521%)" offset="0.375"/><stop stop-opacity="1" stop-color="rgb(23.913574%, 33.375549%, 54.618835%)" offset="0.382812"/><stop stop-opacity="1" stop-color="rgb(23.86322%, 33.221436%, 54.273987%)" offset="0.390625"/><stop stop-opacity="1" stop-color="rgb(23.814392%, 33.068848%, 53.927612%)" offset="0.398437"/><stop stop-opacity="1" stop-color="rgb(23.765564%, 32.91626%, 53.581238%)" offset="0.40625"/><stop stop-opacity="1" stop-color="rgb(23.716736%, 32.763672%, 53.234863%)" offset="0.414063"/><stop stop-opacity="1" stop-color="rgb(23.666382%, 32.609558%, 52.890015%)" offset="0.421875"/><stop stop-opacity="1" stop-color="rgb(23.617554%, 32.45697%, 52.54364%)" offset="0.429688"/><stop stop-opacity="1" stop-color="rgb(23.568726%, 32.304382%, 52.197266%)" offset="0.4375"/><stop stop-opacity="1" stop-color="rgb(23.519897%, 32.150269%, 51.852417%)" offset="0.445312"/><stop stop-opacity="1" stop-color="rgb(23.469543%, 31.997681%, 51.506042%)" offset="0.453125"/><stop stop-opacity="1" stop-color="rgb(23.420715%, 31.845093%, 51.159668%)" offset="0.460937"/><stop stop-opacity="1" stop-color="rgb(23.371887%, 31.690979%, 50.813293%)" offset="0.46875"/><stop stop-opacity="1" stop-color="rgb(23.323059%, 31.538391%, 50.468445%)" offset="0.476563"/><stop stop-opacity="1" stop-color="rgb(23.272705%, 31.385803%, 50.12207%)" offset="0.484375"/><stop stop-opacity="1" stop-color="rgb(23.223877%, 31.231689%, 49.775696%)" offset="0.492188"/><stop stop-opacity="1" stop-color="rgb(23.175049%, 31.079102%, 49.429321%)" offset="0.5"/><stop stop-opacity="1" stop-color="rgb(23.126221%, 30.926514%, 49.084473%)" offset="0.507812"/><stop stop-opacity="1" stop-color="rgb(23.075867%, 30.7724%, 48.738098%)" offset="0.515625"/><stop stop-opacity="1" stop-color="rgb(23.027039%, 30.619812%, 48.391724%)" offset="0.523438"/><stop stop-opacity="1" stop-color="rgb(22.97821%, 30.467224%, 48.045349%)" offset="0.53125"/><stop stop-opacity="1" stop-color="rgb(22.929382%, 30.31311%, 47.7005%)" offset="0.539062"/><stop stop-opacity="1" stop-color="rgb(22.879028%, 30.160522%, 47.354126%)" offset="0.546875"/><stop stop-opacity="1" stop-color="rgb(22.8302%, 30.007935%, 47.007751%)" offset="0.554688"/><stop stop-opacity="1" stop-color="rgb(22.781372%, 29.855347%, 46.662903%)" offset="0.5625"/><stop stop-opacity="1" stop-color="rgb(22.732544%, 29.701233%, 46.316528%)" offset="0.570312"/><stop stop-opacity="1" stop-color="rgb(22.68219%, 29.548645%, 45.970154%)" offset="0.578125"/><stop stop-opacity="1" stop-color="rgb(22.633362%, 29.396057%, 45.623779%)" offset="0.585938"/><stop stop-opacity="1" stop-color="rgb(22.584534%, 29.241943%, 45.278931%)" offset="0.59375"/><stop stop-opacity="1" stop-color="rgb(22.535706%, 29.089355%, 44.932556%)" offset="0.601562"/><stop stop-opacity="1" stop-color="rgb(22.485352%, 28.936768%, 44.586182%)" offset="0.609375"/><stop stop-opacity="1" stop-color="rgb(22.436523%, 28.782654%, 44.239807%)" offset="0.617188"/><stop stop-opacity="1" stop-color="rgb(22.387695%, 28.630066%, 43.894958%)" offset="0.625"/><stop stop-opacity="1" stop-color="rgb(22.338867%, 28.477478%, 43.548584%)" offset="0.632812"/><stop stop-opacity="1" stop-color="rgb(22.288513%, 28.323364%, 43.202209%)" offset="0.640625"/><stop stop-opacity="1" stop-color="rgb(22.239685%, 28.170776%, 42.857361%)" offset="0.648438"/><stop stop-opacity="1" stop-color="rgb(22.190857%, 28.018188%, 42.510986%)" offset="0.65625"/><stop stop-opacity="1" stop-color="rgb(22.142029%, 27.864075%, 42.164612%)" offset="0.664062"/><stop stop-opacity="1" stop-color="rgb(22.091675%, 27.711487%, 41.818237%)" offset="0.671875"/><stop stop-opacity="1" stop-color="rgb(22.042847%, 27.558899%, 41.473389%)" offset="0.679688"/><stop stop-opacity="1" stop-color="rgb(21.994019%, 27.406311%, 41.127014%)" offset="0.6875"/><stop stop-opacity="1" stop-color="rgb(21.94519%, 27.252197%, 40.78064%)" offset="0.695312"/><stop stop-opacity="1" stop-color="rgb(21.896362%, 27.099609%, 40.434265%)" offset="0.703125"/><stop stop-opacity="1" stop-color="rgb(21.846008%, 26.947021%, 40.089417%)" offset="0.710938"/><stop stop-opacity="1" stop-color="rgb(21.79718%, 26.792908%, 39.743042%)" offset="0.71875"/><stop stop-opacity="1" stop-color="rgb(21.748352%, 26.64032%, 39.396667%)" offset="0.726562"/><stop stop-opacity="1" stop-color="rgb(21.699524%, 26.487732%, 39.050293%)" offset="0.734375"/><stop stop-opacity="1" stop-color="rgb(21.64917%, 26.333618%, 38.705444%)" offset="0.742188"/><stop stop-opacity="1" stop-color="rgb(21.600342%, 26.18103%, 38.35907%)" offset="0.75"/><stop stop-opacity="1" stop-color="rgb(21.551514%, 26.028442%, 38.012695%)" offset="0.757812"/><stop stop-opacity="1" stop-color="rgb(21.502686%, 25.874329%, 37.667847%)" offset="0.765625"/><stop stop-opacity="1" stop-color="rgb(21.452332%, 25.721741%, 37.321472%)" offset="0.773438"/><stop stop-opacity="1" stop-color="rgb(21.403503%, 25.569153%, 36.975098%)" offset="0.78125"/><stop stop-opacity="1" stop-color="rgb(21.354675%, 25.415039%, 36.628723%)" offset="0.789062"/><stop stop-opacity="1" stop-color="rgb(21.305847%, 25.262451%, 36.283875%)" offset="0.796875"/><stop stop-opacity="1" stop-color="rgb(21.255493%, 25.109863%, 35.9375%)" offset="0.804688"/><stop stop-opacity="1" stop-color="rgb(21.206665%, 24.95575%, 35.591125%)" offset="0.8125"/><stop stop-opacity="1" stop-color="rgb(21.157837%, 24.803162%, 35.244751%)" offset="0.820312"/><stop stop-opacity="1" stop-color="rgb(21.109009%, 24.650574%, 34.899902%)" offset="0.828125"/><stop stop-opacity="1" stop-color="rgb(21.058655%, 24.497986%, 34.553528%)" offset="0.835938"/><stop stop-opacity="1" stop-color="rgb(21.009827%, 24.343872%, 34.207153%)" offset="0.84375"/><stop stop-opacity="1" stop-color="rgb(20.960999%, 24.191284%, 33.862305%)" offset="0.851562"/><stop stop-opacity="1" stop-color="rgb(20.91217%, 24.038696%, 33.51593%)" offset="0.859375"/><stop stop-opacity="1" stop-color="rgb(20.861816%, 23.884583%, 33.169556%)" offset="0.867188"/><stop stop-opacity="1" stop-color="rgb(20.812988%, 23.731995%, 32.823181%)" offset="0.875"/><stop stop-opacity="1" stop-color="rgb(20.76416%, 23.579407%, 32.478333%)" offset="0.882812"/><stop stop-opacity="1" stop-color="rgb(20.715332%, 23.425293%, 32.131958%)" offset="0.890625"/><stop stop-opacity="1" stop-color="rgb(20.664978%, 23.272705%, 31.785583%)" offset="0.898438"/><stop stop-opacity="1" stop-color="rgb(20.61615%, 23.120117%, 31.439209%)" offset="0.90625"/><stop stop-opacity="1" stop-color="rgb(20.567322%, 22.966003%, 31.09436%)" offset="0.914062"/><stop stop-opacity="1" stop-color="rgb(20.518494%, 22.813416%, 30.747986%)" offset="0.921875"/><stop stop-opacity="1" stop-color="rgb(20.46814%, 22.660828%, 30.401611%)" offset="0.929688"/><stop stop-opacity="1" stop-color="rgb(20.419312%, 22.506714%, 30.055237%)" offset="0.9375"/><stop stop-opacity="1" stop-color="rgb(20.370483%, 22.354126%, 29.710388%)" offset="0.945312"/><stop stop-opacity="1" stop-color="rgb(20.321655%, 22.201538%, 29.364014%)" offset="0.953125"/><stop stop-opacity="1" stop-color="rgb(20.271301%, 22.04895%, 29.017639%)" offset="0.960938"/><stop stop-opacity="1" stop-color="rgb(20.222473%, 21.894836%, 28.672791%)" offset="0.96875"/><stop stop-opacity="1" stop-color="rgb(20.173645%, 21.742249%, 28.326416%)" offset="0.976562"/><stop stop-opacity="1" stop-color="rgb(20.124817%, 21.589661%, 27.980042%)" offset="0.984375"/><stop stop-opacity="1" stop-color="rgb(20.074463%, 21.435547%, 27.633667%)" offset="0.992188"/><stop stop-opacity="1" stop-color="rgb(20.025635%, 21.282959%, 27.288818%)" offset="1"/></linearGradient><clipPath id="6e84f1be21"><path d="M 118.390625 205.160156 L 214.390625 205.160156 L 214.390625 240.410156 L 118.390625 240.410156 Z M 118.390625 205.160156 " clip-rule="nonzero"/></clipPath><clipPath id="de56ae1770"><path d="M 189.769531 205.242188 L 252.769531 205.242188 L 252.769531 240.492188 L 189.769531 240.492188 Z M 189.769531 205.242188 " clip-rule="nonzero"/></clipPath></defs><g clip-path="url(#c87d4e1e49)"><path fill="#4368b6" d="M 769.824219 0.308594 L 1036.796875 0.308594 C 1044.261719 0.308594 1050.308594 6.359375 1050.308594 13.824219 L 1050.308594 280.796875 C 1050.308594 288.261719 1044.261719 294.308594 1036.796875 294.308594 L 769.824219 294.308594 C 762.359375 294.308594 756.308594 288.261719 756.308594 280.796875 L 756.308594 13.824219 C 756.308594 6.359375 762.359375 0.308594 769.824219 0.308594 " fill-opacity="1" fill-rule="nonzero"/></g><g clip-path="url(#98bc946586)"><path fill="url(#9dab809074)" d="M 1032.121094 0 L 1032.121094 294 L 280.902344 294 L 280.902344 0 Z M 1032.121094 0 " fill-rule="nonzero"/></g><g fill="#ffffff" fill-opacity="1"><g transform="translate(336.039867, 202.83441)"><g><path d="M 11.984375 -101.390625 C 27.484375 -102.734375 40.578125 -103.40625 51.265625 -103.40625 C 61.953125 -103.40625 70.132812 -100.394531 75.8125 -94.375 C 81.5 -88.363281 84.34375 -79.484375 84.34375 -67.734375 C 84.34375 -53.484375 80.539062 -43.519531 72.9375 -37.84375 C 66.382812 -33.03125 58.148438 -30.625 48.234375 -30.625 L 34.65625 -31.046875 L 34.65625 0 L 11.984375 0 L 12.5625 -47.375 Z M 57.765625 -83.046875 C 56.421875 -84.390625 53.242188 -85.0625 48.234375 -85.0625 C 43.234375 -85.0625 38.707031 -84.820312 34.65625 -84.34375 L 34.65625 -50.6875 C 38.707031 -50.019531 43.1875 -49.6875 48.09375 -49.6875 C 53 -49.6875 56.367188 -50.523438 58.203125 -52.203125 C 60.035156 -53.890625 60.953125 -58.96875 60.953125 -67.4375 C 60.953125 -75.914062 59.890625 -81.117188 57.765625 -83.046875 Z M 57.765625 -83.046875 "/></g></g></g><g fill="#ffffff" fill-opacity="1"><g transform="translate(425.724883, 202.83441)"><g><path d="M 15.53125 -75.453125 C 21.257812 -83.015625 30.863281 -86.796875 44.34375 -86.796875 C 57.820312 -86.796875 67.375 -83.039062 73 -75.53125 C 78.632812 -68.019531 81.453125 -56.992188 81.453125 -42.453125 C 81.453125 -27.921875 78.632812 -16.898438 73 -9.390625 C 67.375 -1.878906 57.820312 1.875 44.34375 1.875 C 30.863281 1.875 21.257812 -1.898438 15.53125 -9.453125 C 9.800781 -17.015625 6.9375 -28.015625 6.9375 -42.453125 C 6.9375 -56.898438 9.800781 -67.898438 15.53125 -75.453125 Z M 58.640625 -42.453125 C 58.640625 -53.429688 57.648438 -60.722656 55.671875 -64.328125 C 53.703125 -67.941406 49.898438 -69.75 44.265625 -69.75 C 38.628906 -69.75 34.800781 -67.921875 32.78125 -64.265625 C 30.757812 -60.609375 29.75 -53.335938 29.75 -42.453125 C 29.75 -31.578125 30.757812 -24.3125 32.78125 -20.65625 C 34.800781 -17 38.628906 -15.171875 44.265625 -15.171875 C 49.898438 -15.171875 53.703125 -16.972656 55.671875 -20.578125 C 57.648438 -24.191406 58.640625 -31.484375 58.640625 -42.453125 Z M 58.640625 -42.453125 "/></g></g></g><g fill="#ffffff" fill-opacity="1"><g transform="translate(514.110118, 202.83441)"><g><path d="M 32.84375 -78.921875 C 34.4375 -80.128906 37.28125 -81.742188 41.375 -83.765625 C 45.46875 -85.785156 49.316406 -86.796875 52.921875 -86.796875 C 56.535156 -86.796875 59.40625 -86.265625 61.53125 -85.203125 L 59.796875 -65.859375 C 57.097656 -66.148438 54.445312 -66.296875 51.84375 -66.296875 C 45.394531 -66.296875 39.378906 -64.5625 33.796875 -61.09375 L 33.796875 0 L 11.40625 0 L 11.40625 -84.921875 L 25.28125 -84.921875 L 28.15625 -75.96875 L 29.03125 -75.96875 C 29.988281 -76.738281 31.257812 -77.722656 32.84375 -78.921875 Z M 32.84375 -78.921875 "/></g></g></g><g fill="#ffffff" fill-opacity="1"><g transform="translate(576.210848, 202.83441)"><g><path d="M 35.8125 -80.734375 L 53.140625 -80.734375 L 53.140625 -63.546875 L 35.53125 -63.546875 L 35.53125 -27.875 C 35.53125 -23.25 35.960938 -20.3125 36.828125 -19.0625 C 37.691406 -17.8125 39.328125 -17.1875 41.734375 -17.1875 L 52.859375 -17.90625 L 52.859375 0.28125 C 48.140625 1.34375 42.941406 1.875 37.265625 1.875 C 28.890625 1.875 22.773438 -0.21875 18.921875 -4.40625 C 15.066406 -8.59375 13.140625 -16.609375 13.140625 -28.453125 L 13.140625 -63.984375 L 3.328125 -63.984375 L 3.328125 -77.984375 L 14.15625 -80.015625 L 17.46875 -100.078125 L 35.8125 -100.078125 Z M 35.8125 -80.734375 "/></g></g></g><g fill="#ffffff" fill-opacity="1"><g transform="translate(633.978983, 202.83441)"><g><path d="M 55.3125 -80.734375 L 55.3125 -63.546875 L 36.25 -63.546875 L 36.25 0 L 13.859375 0 L 13.859375 -63.984375 L 4.046875 -63.984375 L 4.046875 -77.984375 L 14.015625 -80.015625 C 14.878906 -91.753906 17.984375 -99.984375 23.328125 -104.703125 C 28.671875 -109.421875 35.960938 -111.78125 45.203125 -111.78125 L 58.34375 -111.203125 L 56.75 -93.4375 C 52.226562 -93.820312 48.28125 -94.015625 44.90625 -94.015625 C 41.539062 -94.015625 39.28125 -93.242188 38.125 -91.703125 C 36.96875 -90.160156 36.34375 -86.503906 36.25 -80.734375 Z M 55.3125 -80.734375 "/></g></g></g><g fill="#ffffff" fill-opacity="1"><g transform="translate(689.147532, 202.83441)"><g><path d="M 15.53125 -75.453125 C 21.257812 -83.015625 30.863281 -86.796875 44.34375 -86.796875 C 57.820312 -86.796875 67.375 -83.039062 73 -75.53125 C 78.632812 -68.019531 81.453125 -56.992188 81.453125 -42.453125 C 81.453125 -27.921875 78.632812 -16.898438 73 -9.390625 C 67.375 -1.878906 57.820312 1.875 44.34375 1.875 C 30.863281 1.875 21.257812 -1.898438 15.53125 -9.453125 C 9.800781 -17.015625 6.9375 -28.015625 6.9375 -42.453125 C 6.9375 -56.898438 9.800781 -67.898438 15.53125 -75.453125 Z M 58.640625 -42.453125 C 58.640625 -53.429688 57.648438 -60.722656 55.671875 -64.328125 C 53.703125 -67.941406 49.898438 -69.75 44.265625 -69.75 C 38.628906 -69.75 34.800781 -67.921875 32.78125 -64.265625 C 30.757812 -60.609375 29.75 -53.335938 29.75 -42.453125 C 29.75 -31.578125 30.757812 -24.3125 32.78125 -20.65625 C 34.800781 -17 38.628906 -15.171875 44.265625 -15.171875 C 49.898438 -15.171875 53.703125 -16.972656 55.671875 -20.578125 C 57.648438 -24.191406 58.640625 -31.484375 58.640625 -42.453125 Z M 63.828125 -117.84375 L 68.3125 -101.671875 L 24.703125 -93.296875 L 21.515625 -105.28125 Z M 63.828125 -117.84375 "/></g></g></g><g fill="#ffffff" fill-opacity="1"><g transform="translate(777.532788, 202.83441)"><g><path d="M 33.078125 0 L 10.6875 0 L 10.6875 -109.90625 L 33.078125 -109.90625 Z M 33.078125 0 "/></g></g></g><g fill="#ffffff" fill-opacity="1"><g transform="translate(821.292122, 202.83441)"><g><path d="M 34.515625 0 L 12.125 0 L 12.125 -84.921875 L 34.515625 -84.921875 Z M 35.96875 -94.890625 L 10.6875 -94.890625 L 10.6875 -109.90625 L 35.96875 -109.90625 Z M 35.96875 -94.890625 "/></g></g></g><g fill="#ffffff" fill-opacity="1"><g transform="translate(867.939876, 202.83441)"><g><path d="M 15.53125 -75.453125 C 21.257812 -83.015625 30.863281 -86.796875 44.34375 -86.796875 C 57.820312 -86.796875 67.375 -83.039062 73 -75.53125 C 78.632812 -68.019531 81.453125 -56.992188 81.453125 -42.453125 C 81.453125 -27.921875 78.632812 -16.898438 73 -9.390625 C 67.375 -1.878906 57.820312 1.875 44.34375 1.875 C 30.863281 1.875 21.257812 -1.898438 15.53125 -9.453125 C 9.800781 -17.015625 6.9375 -28.015625 6.9375 -42.453125 C 6.9375 -56.898438 9.800781 -67.898438 15.53125 -75.453125 Z M 58.640625 -42.453125 C 58.640625 -53.429688 57.648438 -60.722656 55.671875 -64.328125 C 53.703125 -67.941406 49.898438 -69.75 44.265625 -69.75 C 38.628906 -69.75 34.800781 -67.921875 32.78125 -64.265625 C 30.757812 -60.609375 29.75 -53.335938 29.75 -42.453125 C 29.75 -31.578125 30.757812 -24.3125 32.78125 -20.65625 C 34.800781 -17 38.628906 -15.171875 44.265625 -15.171875 C 49.898438 -15.171875 53.703125 -16.972656 55.671875 -20.578125 C 57.648438 -24.191406 58.640625 -31.484375 58.640625 -42.453125 Z M 58.640625 -42.453125 "/></g></g></g><path fill="#4368b6" d="M 13.515625 0 L 280.484375 0 C 287.949219 0 294 6.050781 294 13.515625 L 294 280.484375 C 294 287.949219 287.949219 294 280.484375 294 L 13.515625 294 C 6.050781 294 0 287.949219 0 280.484375 L 0 13.515625 C 0 6.050781 6.050781 0 13.515625 0 " fill-opacity="1" fill-rule="nonzero"/><path fill="#ffffff" d="M 67.382812 63.917969 C 72.605469 63.917969 76.089844 65.664062 79.570312 69.148438 L 149.226562 138.867188 C 156.191406 145.839844 156.191406 156.296875 149.226562 163.269531 L 79.570312 232.984375 C 72.605469 239.957031 62.160156 239.957031 55.195312 232.984375 C 48.226562 226.015625 48.226562 215.554688 55.195312 208.585938 L 112.65625 151.066406 L 55.195312 93.550781 C 48.226562 86.578125 48.226562 76.121094 55.195312 69.148438 C 58.675781 65.664062 62.160156 63.917969 67.382812 63.917969 Z M 67.382812 63.917969 " fill-opacity="1" fill-rule="nonzero"/><g clip-path="url(#6e84f1be21)"><path fill="#ffffff" d="M 119.414062 216.914062 C 118.800781 218.722656 118.398438 220.777344 118.398438 222.792969 C 118.398438 224.808594 118.742188 226.75 119.359375 228.539062 C 119.378906 228.574219 119.378906 228.613281 119.398438 228.652344 C 121.859375 235.367188 128.355469 240.3125 137.117188 240.410156 L 214.382812 240.410156 L 214.382812 205.160156 L 137.171875 205.160156 C 128.316406 205.253906 121.820312 210.125 119.414062 216.914062 " fill-opacity="1" fill-rule="nonzero"/></g><g clip-path="url(#de56ae1770)"><path fill="#ffffff" d="M 251.738281 228.734375 C 252.359375 226.929688 252.765625 224.875 252.765625 222.855469 C 252.765625 220.839844 252.417969 218.898438 251.796875 217.113281 C 251.777344 217.074219 251.777344 217.035156 251.757812 216.996094 C 249.28125 210.28125 242.734375 205.335938 234.660156 205.242188 L 189.773438 205.242188 L 189.773438 240.492188 L 234.628906 240.492188 C 242.773438 240.398438 249.320312 235.527344 251.738281 228.734375 " fill-opacity="1" fill-rule="nonzero"/></g></svg>