<svg xmlns="http://www.w3.org/2000/svg" xmlns:xlink="http://www.w3.org/1999/xlink" width="392" zoomAndPan="magnify" viewBox="0 0 294 293.999989" height="392" preserveAspectRatio="xMidYMid meet" version="1.0"><defs><clipPath id="220ba3776e"><path d="M 118.390625 205.160156 L 214.390625 205.160156 L 214.390625 240.410156 L 118.390625 240.410156 Z M 118.390625 205.160156 " clip-rule="nonzero"/></clipPath><clipPath id="139003e7f5"><path d="M 189.769531 205.242188 L 252.769531 205.242188 L 252.769531 240.492188 L 189.769531 240.492188 Z M 189.769531 205.242188 " clip-rule="nonzero"/></clipPath></defs><path fill="#ffffff" d="M 67.382812 63.917969 C 72.605469 63.917969 76.089844 65.664062 79.570312 69.148438 L 149.226562 138.867188 C 156.191406 145.839844 156.191406 156.296875 149.226562 163.269531 L 79.570312 232.984375 C 72.605469 239.957031 62.160156 239.957031 55.195312 232.984375 C 48.226562 226.015625 48.226562 215.554688 55.195312 208.585938 L 112.65625 151.066406 L 55.195312 93.550781 C 48.226562 86.578125 48.226562 76.121094 55.195312 69.148438 C 58.675781 65.664062 62.160156 63.917969 67.382812 63.917969 Z M 67.382812 63.917969 " fill-opacity="1" fill-rule="nonzero"/><g clip-path="url(#220ba3776e)"><path fill="#ffffff" d="M 119.414062 216.914062 C 118.800781 218.722656 118.398438 220.777344 118.398438 222.792969 C 118.398438 224.808594 118.742188 226.75 119.359375 228.539062 C 119.378906 228.574219 119.378906 228.613281 119.398438 228.652344 C 121.855469 235.367188 128.355469 240.3125 137.117188 240.410156 L 214.382812 240.410156 L 214.382812 205.160156 L 137.171875 205.160156 C 128.316406 205.253906 121.820312 210.125 119.414062 216.914062 " fill-opacity="1" fill-rule="nonzero"/></g><g clip-path="url(#139003e7f5)"><path fill="#ffffff" d="M 251.738281 228.734375 C 252.359375 226.929688 252.765625 224.875 252.765625 222.855469 C 252.765625 220.839844 252.417969 218.898438 251.796875 217.113281 C 251.777344 217.074219 251.777344 217.035156 251.757812 216.996094 C 249.28125 210.28125 242.734375 205.335938 234.660156 205.242188 L 189.773438 205.242188 L 189.773438 240.492188 L 234.628906 240.492188 C 242.773438 240.398438 249.320312 235.527344 251.738281 228.734375 " fill-opacity="1" fill-rule="nonzero"/></g></svg>