<svg xmlns="http://www.w3.org/2000/svg" xmlns:xlink="http://www.w3.org/1999/xlink" width="1400" zoomAndPan="magnify" viewBox="0 0 1050 293.999989" height="392" preserveAspectRatio="xMidYMid meet" version="1.0"><defs><g/><clipPath id="82c5dfaa31"><path d="M 507.179688 0.308594 L 1050 0.308594 L 1050 294 L 507.179688 294 Z M 507.179688 0.308594 " clip-rule="nonzero"/></clipPath><clipPath id="0f40ce001b"><path d="M 147.753906 0 L 518.957031 0 L 518.957031 294 L 147.753906 294 Z M 147.753906 0 " clip-rule="nonzero"/></clipPath><linearGradient x1="0.999874" gradientTransform="matrix(-371.249955, 0, 0, 371.249955, 518.95862, 0)" y1="0.5" x2="0.0000000474701" gradientUnits="userSpaceOnUse" y2="0.5" id="ab7b6165b0"><stop stop-opacity="1" stop-color="rgb(26.298523%, 40.797424%, 71.394348%)" offset="0"/><stop stop-opacity="1" stop-color="rgb(26.274109%, 40.719604%, 71.220398%)" offset="0.0078125"/><stop stop-opacity="1" stop-color="rgb(26.223755%, 40.567017%, 70.874023%)" offset="0.015625"/><stop stop-opacity="1" stop-color="rgb(26.174927%, 40.414429%, 70.527649%)" offset="0.0234375"/><stop stop-opacity="1" stop-color="rgb(26.126099%, 40.260315%, 70.181274%)" offset="0.03125"/><stop stop-opacity="1" stop-color="rgb(26.077271%, 40.107727%, 69.836426%)" offset="0.0390625"/><stop stop-opacity="1" stop-color="rgb(26.026917%, 39.955139%, 69.490051%)" offset="0.046875"/><stop stop-opacity="1" stop-color="rgb(25.978088%, 39.801025%, 69.143677%)" offset="0.0546875"/><stop stop-opacity="1" stop-color="rgb(25.92926%, 39.648438%, 68.797302%)" offset="0.0625"/><stop stop-opacity="1" stop-color="rgb(25.880432%, 39.49585%, 68.450928%)" offset="0.0703125"/><stop stop-opacity="1" stop-color="rgb(25.830078%, 39.341736%, 68.106079%)" offset="0.078125"/><stop stop-opacity="1" stop-color="rgb(25.78125%, 39.189148%, 67.759705%)" offset="0.0859375"/><stop stop-opacity="1" stop-color="rgb(25.732422%, 39.035034%, 67.41333%)" offset="0.09375"/><stop stop-opacity="1" stop-color="rgb(25.683594%, 38.882446%, 67.066956%)" offset="0.101562"/><stop stop-opacity="1" stop-color="rgb(25.63324%, 38.729858%, 66.722107%)" offset="0.109375"/><stop stop-opacity="1" stop-color="rgb(25.584412%, 38.575745%, 66.375732%)" offset="0.117188"/><stop stop-opacity="1" stop-color="rgb(25.535583%, 38.423157%, 66.029358%)" offset="0.125"/><stop stop-opacity="1" stop-color="rgb(25.486755%, 38.270569%, 65.682983%)" offset="0.132812"/><stop stop-opacity="1" stop-color="rgb(25.436401%, 38.116455%, 65.336609%)" offset="0.140625"/><stop stop-opacity="1" stop-color="rgb(25.387573%, 37.963867%, 64.99176%)" offset="0.148437"/><stop stop-opacity="1" stop-color="rgb(25.338745%, 37.811279%, 64.645386%)" offset="0.15625"/><stop stop-opacity="1" stop-color="rgb(25.289917%, 37.657166%, 64.299011%)" offset="0.164063"/><stop stop-opacity="1" stop-color="rgb(25.239563%, 37.504578%, 63.952637%)" offset="0.171875"/><stop stop-opacity="1" stop-color="rgb(25.190735%, 37.35199%, 63.606262%)" offset="0.179688"/><stop stop-opacity="1" stop-color="rgb(25.141907%, 37.197876%, 63.261414%)" offset="0.1875"/><stop stop-opacity="1" stop-color="rgb(25.093079%, 37.045288%, 62.915039%)" offset="0.195312"/><stop stop-opacity="1" stop-color="rgb(25.042725%, 36.8927%, 62.568665%)" offset="0.203125"/><stop stop-opacity="1" stop-color="rgb(24.993896%, 36.738586%, 62.22229%)" offset="0.210937"/><stop stop-opacity="1" stop-color="rgb(24.945068%, 36.585999%, 61.875916%)" offset="0.21875"/><stop stop-opacity="1" stop-color="rgb(24.89624%, 36.433411%, 61.531067%)" offset="0.226563"/><stop stop-opacity="1" stop-color="rgb(24.845886%, 36.279297%, 61.184692%)" offset="0.234375"/><stop stop-opacity="1" stop-color="rgb(24.797058%, 36.126709%, 60.838318%)" offset="0.242188"/><stop stop-opacity="1" stop-color="rgb(24.74823%, 35.974121%, 60.491943%)" offset="0.25"/><stop stop-opacity="1" stop-color="rgb(24.699402%, 35.820007%, 60.147095%)" offset="0.257812"/><stop stop-opacity="1" stop-color="rgb(24.649048%, 35.667419%, 59.80072%)" offset="0.265625"/><stop stop-opacity="1" stop-color="rgb(24.60022%, 35.514832%, 59.454346%)" offset="0.273438"/><stop stop-opacity="1" stop-color="rgb(24.551392%, 35.360718%, 59.107971%)" offset="0.28125"/><stop stop-opacity="1" stop-color="rgb(24.502563%, 35.20813%, 58.761597%)" offset="0.289062"/><stop stop-opacity="1" stop-color="rgb(24.452209%, 35.055542%, 58.416748%)" offset="0.296875"/><stop stop-opacity="1" stop-color="rgb(24.403381%, 34.901428%, 58.070374%)" offset="0.304687"/><stop stop-opacity="1" stop-color="rgb(24.354553%, 34.74884%, 57.723999%)" offset="0.3125"/><stop stop-opacity="1" stop-color="rgb(24.305725%, 34.596252%, 57.377625%)" offset="0.320313"/><stop stop-opacity="1" stop-color="rgb(24.255371%, 34.442139%, 57.03125%)" offset="0.328125"/><stop stop-opacity="1" stop-color="rgb(24.206543%, 34.289551%, 56.686401%)" offset="0.335938"/><stop stop-opacity="1" stop-color="rgb(24.157715%, 34.136963%, 56.340027%)" offset="0.34375"/><stop stop-opacity="1" stop-color="rgb(24.108887%, 33.982849%, 55.993652%)" offset="0.351562"/><stop stop-opacity="1" stop-color="rgb(24.058533%, 33.830261%, 55.647278%)" offset="0.359375"/><stop stop-opacity="1" stop-color="rgb(24.009705%, 33.677673%, 55.302429%)" offset="0.367188"/><stop stop-opacity="1" stop-color="rgb(23.960876%, 33.52356%, 54.956055%)" offset="0.375"/><stop stop-opacity="1" stop-color="rgb(23.912048%, 33.370972%, 54.60968%)" offset="0.382812"/><stop stop-opacity="1" stop-color="rgb(23.861694%, 33.218384%, 54.263306%)" offset="0.390625"/><stop stop-opacity="1" stop-color="rgb(23.812866%, 33.06427%, 53.916931%)" offset="0.398438"/><stop stop-opacity="1" stop-color="rgb(23.764038%, 32.911682%, 53.572083%)" offset="0.40625"/><stop stop-opacity="1" stop-color="rgb(23.71521%, 32.759094%, 53.225708%)" offset="0.414062"/><stop stop-opacity="1" stop-color="rgb(23.664856%, 32.60498%, 52.879333%)" offset="0.421875"/><stop stop-opacity="1" stop-color="rgb(23.616028%, 32.452393%, 52.532959%)" offset="0.429687"/><stop stop-opacity="1" stop-color="rgb(23.5672%, 32.299805%, 52.186584%)" offset="0.4375"/><stop stop-opacity="1" stop-color="rgb(23.518372%, 32.145691%, 51.841736%)" offset="0.445313"/><stop stop-opacity="1" stop-color="rgb(23.468018%, 31.993103%, 51.495361%)" offset="0.453125"/><stop stop-opacity="1" stop-color="rgb(23.419189%, 31.840515%, 51.148987%)" offset="0.460938"/><stop stop-opacity="1" stop-color="rgb(23.370361%, 31.686401%, 50.802612%)" offset="0.46875"/><stop stop-opacity="1" stop-color="rgb(23.321533%, 31.533813%, 50.457764%)" offset="0.476562"/><stop stop-opacity="1" stop-color="rgb(23.271179%, 31.381226%, 50.111389%)" offset="0.484375"/><stop stop-opacity="1" stop-color="rgb(23.222351%, 31.227112%, 49.765015%)" offset="0.492188"/><stop stop-opacity="1" stop-color="rgb(23.173523%, 31.074524%, 49.41864%)" offset="0.5"/><stop stop-opacity="1" stop-color="rgb(23.124695%, 30.921936%, 49.072266%)" offset="0.507812"/><stop stop-opacity="1" stop-color="rgb(23.074341%, 30.767822%, 48.727417%)" offset="0.515625"/><stop stop-opacity="1" stop-color="rgb(23.025513%, 30.615234%, 48.381042%)" offset="0.523438"/><stop stop-opacity="1" stop-color="rgb(22.976685%, 30.461121%, 48.034668%)" offset="0.53125"/><stop stop-opacity="1" stop-color="rgb(22.927856%, 30.308533%, 47.688293%)" offset="0.539062"/><stop stop-opacity="1" stop-color="rgb(22.877502%, 30.155945%, 47.341919%)" offset="0.546875"/><stop stop-opacity="1" stop-color="rgb(22.828674%, 30.001831%, 46.99707%)" offset="0.554688"/><stop stop-opacity="1" stop-color="rgb(22.779846%, 29.849243%, 46.650696%)" offset="0.5625"/><stop stop-opacity="1" stop-color="rgb(22.731018%, 29.696655%, 46.304321%)" offset="0.570312"/><stop stop-opacity="1" stop-color="rgb(22.680664%, 29.542542%, 45.957947%)" offset="0.578125"/><stop stop-opacity="1" stop-color="rgb(22.631836%, 29.389954%, 45.611572%)" offset="0.585937"/><stop stop-opacity="1" stop-color="rgb(22.583008%, 29.237366%, 45.266724%)" offset="0.59375"/><stop stop-opacity="1" stop-color="rgb(22.53418%, 29.083252%, 44.920349%)" offset="0.601562"/><stop stop-opacity="1" stop-color="rgb(22.483826%, 28.930664%, 44.573975%)" offset="0.609375"/><stop stop-opacity="1" stop-color="rgb(22.434998%, 28.778076%, 44.2276%)" offset="0.617187"/><stop stop-opacity="1" stop-color="rgb(22.386169%, 28.623962%, 43.882751%)" offset="0.625"/><stop stop-opacity="1" stop-color="rgb(22.337341%, 28.471375%, 43.536377%)" offset="0.632813"/><stop stop-opacity="1" stop-color="rgb(22.286987%, 28.318787%, 43.190002%)" offset="0.640625"/><stop stop-opacity="1" stop-color="rgb(22.238159%, 28.164673%, 42.843628%)" offset="0.648438"/><stop stop-opacity="1" stop-color="rgb(22.189331%, 28.012085%, 42.497253%)" offset="0.65625"/><stop stop-opacity="1" stop-color="rgb(22.140503%, 27.859497%, 42.152405%)" offset="0.664063"/><stop stop-opacity="1" stop-color="rgb(22.090149%, 27.705383%, 41.80603%)" offset="0.671875"/><stop stop-opacity="1" stop-color="rgb(22.041321%, 27.552795%, 41.459656%)" offset="0.679688"/><stop stop-opacity="1" stop-color="rgb(21.992493%, 27.400208%, 41.113281%)" offset="0.6875"/><stop stop-opacity="1" stop-color="rgb(21.943665%, 27.246094%, 40.766907%)" offset="0.695312"/><stop stop-opacity="1" stop-color="rgb(21.893311%, 27.093506%, 40.422058%)" offset="0.703125"/><stop stop-opacity="1" stop-color="rgb(21.844482%, 26.940918%, 40.075684%)" offset="0.710938"/><stop stop-opacity="1" stop-color="rgb(21.795654%, 26.786804%, 39.729309%)" offset="0.71875"/><stop stop-opacity="1" stop-color="rgb(21.746826%, 26.634216%, 39.382935%)" offset="0.726562"/><stop stop-opacity="1" stop-color="rgb(21.696472%, 26.481628%, 39.038086%)" offset="0.734375"/><stop stop-opacity="1" stop-color="rgb(21.647644%, 26.327515%, 38.691711%)" offset="0.742188"/><stop stop-opacity="1" stop-color="rgb(21.598816%, 26.174927%, 38.345337%)" offset="0.75"/><stop stop-opacity="1" stop-color="rgb(21.549988%, 26.022339%, 37.998962%)" offset="0.757812"/><stop stop-opacity="1" stop-color="rgb(21.499634%, 25.868225%, 37.652588%)" offset="0.765625"/><stop stop-opacity="1" stop-color="rgb(21.450806%, 25.715637%, 37.307739%)" offset="0.773438"/><stop stop-opacity="1" stop-color="rgb(21.401978%, 25.563049%, 36.961365%)" offset="0.78125"/><stop stop-opacity="1" stop-color="rgb(21.353149%, 25.408936%, 36.61499%)" offset="0.789062"/><stop stop-opacity="1" stop-color="rgb(21.302795%, 25.256348%, 36.268616%)" offset="0.796875"/><stop stop-opacity="1" stop-color="rgb(21.253967%, 25.10376%, 35.922241%)" offset="0.804688"/><stop stop-opacity="1" stop-color="rgb(21.205139%, 24.949646%, 35.577393%)" offset="0.8125"/><stop stop-opacity="1" stop-color="rgb(21.154785%, 24.797058%, 35.231018%)" offset="0.820312"/><stop stop-opacity="1" stop-color="rgb(21.105957%, 24.64447%, 34.884644%)" offset="0.828125"/><stop stop-opacity="1" stop-color="rgb(21.057129%, 24.490356%, 34.538269%)" offset="0.835937"/><stop stop-opacity="1" stop-color="rgb(21.008301%, 24.337769%, 34.19342%)" offset="0.84375"/><stop stop-opacity="1" stop-color="rgb(20.957947%, 24.185181%, 33.847046%)" offset="0.851562"/><stop stop-opacity="1" stop-color="rgb(20.909119%, 24.031067%, 33.500671%)" offset="0.859375"/><stop stop-opacity="1" stop-color="rgb(20.860291%, 23.878479%, 33.154297%)" offset="0.867187"/><stop stop-opacity="1" stop-color="rgb(20.811462%, 23.725891%, 32.807922%)" offset="0.875"/><stop stop-opacity="1" stop-color="rgb(20.761108%, 23.571777%, 32.463074%)" offset="0.882813"/><stop stop-opacity="1" stop-color="rgb(20.71228%, 23.419189%, 32.116699%)" offset="0.890625"/><stop stop-opacity="1" stop-color="rgb(20.663452%, 23.266602%, 31.770325%)" offset="0.898438"/><stop stop-opacity="1" stop-color="rgb(20.614624%, 23.112488%, 31.42395%)" offset="0.90625"/><stop stop-opacity="1" stop-color="rgb(20.56427%, 22.9599%, 31.077576%)" offset="0.914063"/><stop stop-opacity="1" stop-color="rgb(20.515442%, 22.807312%, 30.732727%)" offset="0.921875"/><stop stop-opacity="1" stop-color="rgb(20.466614%, 22.653198%, 30.386353%)" offset="0.929688"/><stop stop-opacity="1" stop-color="rgb(20.417786%, 22.50061%, 30.039978%)" offset="0.9375"/><stop stop-opacity="1" stop-color="rgb(20.367432%, 22.348022%, 29.693604%)" offset="0.945312"/><stop stop-opacity="1" stop-color="rgb(20.318604%, 22.193909%, 29.347229%)" offset="0.953125"/><stop stop-opacity="1" stop-color="rgb(20.269775%, 22.041321%, 29.00238%)" offset="0.960938"/><stop stop-opacity="1" stop-color="rgb(20.220947%, 21.887207%, 28.656006%)" offset="0.96875"/><stop stop-opacity="1" stop-color="rgb(20.170593%, 21.734619%, 28.309631%)" offset="0.976562"/><stop stop-opacity="1" stop-color="rgb(20.121765%, 21.582031%, 27.963257%)" offset="0.984375"/><stop stop-opacity="1" stop-color="rgb(20.072937%, 21.427917%, 27.618408%)" offset="0.992188"/><stop stop-opacity="1" stop-color="rgb(20.024109%, 21.27533%, 27.272034%)" offset="1"/></linearGradient><clipPath id="eb1f740bf8"><path d="M 118.390625 205.160156 L 214.390625 205.160156 L 214.390625 240.410156 L 118.390625 240.410156 Z M 118.390625 205.160156 " clip-rule="nonzero"/></clipPath><clipPath id="10706cace4"><path d="M 189.769531 205.242188 L 252.769531 205.242188 L 252.769531 240.492188 L 189.769531 240.492188 Z M 189.769531 205.242188 " clip-rule="nonzero"/></clipPath></defs><g clip-path="url(#82c5dfaa31)"><path fill="#333645" d="M 520.6875 0.308594 L 1036.671875 0.308594 C 1044.132812 0.308594 1050.179688 6.359375 1050.179688 13.824219 L 1050.179688 280.796875 C 1050.179688 288.261719 1044.132812 294.308594 1036.671875 294.308594 L 520.6875 294.308594 C 513.226562 294.308594 507.183594 288.261719 507.183594 280.796875 L 507.183594 13.824219 C 507.183594 6.359375 513.226562 0.308594 520.6875 0.308594 " fill-opacity="1" fill-rule="nonzero"/></g><path fill="#4368b6" d="M 13.515625 0 L 280.484375 0 C 287.949219 0 294 6.050781 294 13.515625 L 294 280.484375 C 294 287.949219 287.949219 294 280.484375 294 L 13.515625 294 C 6.050781 294 0 287.949219 0 280.484375 L 0 13.515625 C 0 6.050781 6.050781 0 13.515625 0 " fill-opacity="1" fill-rule="nonzero"/><g clip-path="url(#0f40ce001b)"><path fill="url(#ab7b6165b0)" d="M 518.957031 0 L 518.957031 294 L 147.753906 294 L 147.753906 0 Z M 518.957031 0 " fill-rule="nonzero"/></g><g fill="#ffffff" fill-opacity="1"><g transform="translate(336.039867, 202.83441)"><g><path d="M 11.984375 -101.390625 C 27.484375 -102.734375 40.578125 -103.40625 51.265625 -103.40625 C 61.953125 -103.40625 70.132812 -100.394531 75.8125 -94.375 C 81.5 -88.363281 84.34375 -79.484375 84.34375 -67.734375 C 84.34375 -53.484375 80.539062 -43.519531 72.9375 -37.84375 C 66.382812 -33.03125 58.148438 -30.625 48.234375 -30.625 L 34.65625 -31.046875 L 34.65625 0 L 11.984375 0 L 12.5625 -47.375 Z M 57.765625 -83.046875 C 56.421875 -84.390625 53.242188 -85.0625 48.234375 -85.0625 C 43.234375 -85.0625 38.707031 -84.820312 34.65625 -84.34375 L 34.65625 -50.6875 C 38.707031 -50.019531 43.1875 -49.6875 48.09375 -49.6875 C 53 -49.6875 56.367188 -50.523438 58.203125 -52.203125 C 60.035156 -53.890625 60.953125 -58.96875 60.953125 -67.4375 C 60.953125 -75.914062 59.890625 -81.117188 57.765625 -83.046875 Z M 57.765625 -83.046875 "/></g></g></g><g fill="#ffffff" fill-opacity="1"><g transform="translate(425.724883, 202.83441)"><g><path d="M 15.53125 -75.453125 C 21.257812 -83.015625 30.863281 -86.796875 44.34375 -86.796875 C 57.820312 -86.796875 67.375 -83.039062 73 -75.53125 C 78.632812 -68.019531 81.453125 -56.992188 81.453125 -42.453125 C 81.453125 -27.921875 78.632812 -16.898438 73 -9.390625 C 67.375 -1.878906 57.820312 1.875 44.34375 1.875 C 30.863281 1.875 21.257812 -1.898438 15.53125 -9.453125 C 9.800781 -17.015625 6.9375 -28.015625 6.9375 -42.453125 C 6.9375 -56.898438 9.800781 -67.898438 15.53125 -75.453125 Z M 58.640625 -42.453125 C 58.640625 -53.429688 57.648438 -60.722656 55.671875 -64.328125 C 53.703125 -67.941406 49.898438 -69.75 44.265625 -69.75 C 38.628906 -69.75 34.800781 -67.921875 32.78125 -64.265625 C 30.757812 -60.609375 29.75 -53.335938 29.75 -42.453125 C 29.75 -31.578125 30.757812 -24.3125 32.78125 -20.65625 C 34.800781 -17 38.628906 -15.171875 44.265625 -15.171875 C 49.898438 -15.171875 53.703125 -16.972656 55.671875 -20.578125 C 57.648438 -24.191406 58.640625 -31.484375 58.640625 -42.453125 Z M 58.640625 -42.453125 "/></g></g></g><g fill="#ffffff" fill-opacity="1"><g transform="translate(514.110118, 202.83441)"><g><path d="M 32.84375 -78.921875 C 34.4375 -80.128906 37.28125 -81.742188 41.375 -83.765625 C 45.46875 -85.785156 49.316406 -86.796875 52.921875 -86.796875 C 56.535156 -86.796875 59.40625 -86.265625 61.53125 -85.203125 L 59.796875 -65.859375 C 57.097656 -66.148438 54.445312 -66.296875 51.84375 -66.296875 C 45.394531 -66.296875 39.378906 -64.5625 33.796875 -61.09375 L 33.796875 0 L 11.40625 0 L 11.40625 -84.921875 L 25.28125 -84.921875 L 28.15625 -75.96875 L 29.03125 -75.96875 C 29.988281 -76.738281 31.257812 -77.722656 32.84375 -78.921875 Z M 32.84375 -78.921875 "/></g></g></g><g fill="#ffffff" fill-opacity="1"><g transform="translate(576.210848, 202.83441)"><g><path d="M 35.8125 -80.734375 L 53.140625 -80.734375 L 53.140625 -63.546875 L 35.53125 -63.546875 L 35.53125 -27.875 C 35.53125 -23.25 35.960938 -20.3125 36.828125 -19.0625 C 37.691406 -17.8125 39.328125 -17.1875 41.734375 -17.1875 L 52.859375 -17.90625 L 52.859375 0.28125 C 48.140625 1.34375 42.941406 1.875 37.265625 1.875 C 28.890625 1.875 22.773438 -0.21875 18.921875 -4.40625 C 15.066406 -8.59375 13.140625 -16.609375 13.140625 -28.453125 L 13.140625 -63.984375 L 3.328125 -63.984375 L 3.328125 -77.984375 L 14.15625 -80.015625 L 17.46875 -100.078125 L 35.8125 -100.078125 Z M 35.8125 -80.734375 "/></g></g></g><g fill="#ffffff" fill-opacity="1"><g transform="translate(633.978983, 202.83441)"><g><path d="M 55.3125 -80.734375 L 55.3125 -63.546875 L 36.25 -63.546875 L 36.25 0 L 13.859375 0 L 13.859375 -63.984375 L 4.046875 -63.984375 L 4.046875 -77.984375 L 14.015625 -80.015625 C 14.878906 -91.753906 17.984375 -99.984375 23.328125 -104.703125 C 28.671875 -109.421875 35.960938 -111.78125 45.203125 -111.78125 L 58.34375 -111.203125 L 56.75 -93.4375 C 52.226562 -93.820312 48.28125 -94.015625 44.90625 -94.015625 C 41.539062 -94.015625 39.28125 -93.242188 38.125 -91.703125 C 36.96875 -90.160156 36.34375 -86.503906 36.25 -80.734375 Z M 55.3125 -80.734375 "/></g></g></g><g fill="#ffffff" fill-opacity="1"><g transform="translate(689.147532, 202.83441)"><g><path d="M 15.53125 -75.453125 C 21.257812 -83.015625 30.863281 -86.796875 44.34375 -86.796875 C 57.820312 -86.796875 67.375 -83.039062 73 -75.53125 C 78.632812 -68.019531 81.453125 -56.992188 81.453125 -42.453125 C 81.453125 -27.921875 78.632812 -16.898438 73 -9.390625 C 67.375 -1.878906 57.820312 1.875 44.34375 1.875 C 30.863281 1.875 21.257812 -1.898438 15.53125 -9.453125 C 9.800781 -17.015625 6.9375 -28.015625 6.9375 -42.453125 C 6.9375 -56.898438 9.800781 -67.898438 15.53125 -75.453125 Z M 58.640625 -42.453125 C 58.640625 -53.429688 57.648438 -60.722656 55.671875 -64.328125 C 53.703125 -67.941406 49.898438 -69.75 44.265625 -69.75 C 38.628906 -69.75 34.800781 -67.921875 32.78125 -64.265625 C 30.757812 -60.609375 29.75 -53.335938 29.75 -42.453125 C 29.75 -31.578125 30.757812 -24.3125 32.78125 -20.65625 C 34.800781 -17 38.628906 -15.171875 44.265625 -15.171875 C 49.898438 -15.171875 53.703125 -16.972656 55.671875 -20.578125 C 57.648438 -24.191406 58.640625 -31.484375 58.640625 -42.453125 Z M 63.828125 -117.84375 L 68.3125 -101.671875 L 24.703125 -93.296875 L 21.515625 -105.28125 Z M 63.828125 -117.84375 "/></g></g></g><g fill="#ffffff" fill-opacity="1"><g transform="translate(777.532788, 202.83441)"><g><path d="M 33.078125 0 L 10.6875 0 L 10.6875 -109.90625 L 33.078125 -109.90625 Z M 33.078125 0 "/></g></g></g><g fill="#ffffff" fill-opacity="1"><g transform="translate(821.292122, 202.83441)"><g><path d="M 34.515625 0 L 12.125 0 L 12.125 -84.921875 L 34.515625 -84.921875 Z M 35.96875 -94.890625 L 10.6875 -94.890625 L 10.6875 -109.90625 L 35.96875 -109.90625 Z M 35.96875 -94.890625 "/></g></g></g><g fill="#ffffff" fill-opacity="1"><g transform="translate(867.939876, 202.83441)"><g><path d="M 15.53125 -75.453125 C 21.257812 -83.015625 30.863281 -86.796875 44.34375 -86.796875 C 57.820312 -86.796875 67.375 -83.039062 73 -75.53125 C 78.632812 -68.019531 81.453125 -56.992188 81.453125 -42.453125 C 81.453125 -27.921875 78.632812 -16.898438 73 -9.390625 C 67.375 -1.878906 57.820312 1.875 44.34375 1.875 C 30.863281 1.875 21.257812 -1.898438 15.53125 -9.453125 C 9.800781 -17.015625 6.9375 -28.015625 6.9375 -42.453125 C 6.9375 -56.898438 9.800781 -67.898438 15.53125 -75.453125 Z M 58.640625 -42.453125 C 58.640625 -53.429688 57.648438 -60.722656 55.671875 -64.328125 C 53.703125 -67.941406 49.898438 -69.75 44.265625 -69.75 C 38.628906 -69.75 34.800781 -67.921875 32.78125 -64.265625 C 30.757812 -60.609375 29.75 -53.335938 29.75 -42.453125 C 29.75 -31.578125 30.757812 -24.3125 32.78125 -20.65625 C 34.800781 -17 38.628906 -15.171875 44.265625 -15.171875 C 49.898438 -15.171875 53.703125 -16.972656 55.671875 -20.578125 C 57.648438 -24.191406 58.640625 -31.484375 58.640625 -42.453125 Z M 58.640625 -42.453125 "/></g></g></g><path fill="#ffffff" d="M 67.382812 63.917969 C 72.605469 63.917969 76.089844 65.664062 79.570312 69.148438 L 149.226562 138.867188 C 156.191406 145.839844 156.191406 156.296875 149.226562 163.269531 L 79.570312 232.984375 C 72.605469 239.957031 62.160156 239.957031 55.195312 232.984375 C 48.226562 226.015625 48.226562 215.554688 55.195312 208.585938 L 112.65625 151.066406 L 55.195312 93.550781 C 48.226562 86.578125 48.226562 76.121094 55.195312 69.148438 C 58.675781 65.664062 62.160156 63.917969 67.382812 63.917969 Z M 67.382812 63.917969 " fill-opacity="1" fill-rule="nonzero"/><g clip-path="url(#eb1f740bf8)"><path fill="#ffffff" d="M 119.414062 216.914062 C 118.800781 218.722656 118.398438 220.777344 118.398438 222.792969 C 118.398438 224.808594 118.742188 226.75 119.359375 228.539062 C 119.378906 228.574219 119.378906 228.613281 119.398438 228.652344 C 121.859375 235.367188 128.355469 240.3125 137.117188 240.410156 L 214.382812 240.410156 L 214.382812 205.160156 L 137.171875 205.160156 C 128.316406 205.253906 121.820312 210.125 119.414062 216.914062 " fill-opacity="1" fill-rule="nonzero"/></g><g clip-path="url(#10706cace4)"><path fill="#ffffff" d="M 251.738281 228.734375 C 252.359375 226.929688 252.765625 224.875 252.765625 222.855469 C 252.765625 220.839844 252.417969 218.898438 251.796875 217.113281 C 251.777344 217.074219 251.777344 217.035156 251.757812 216.996094 C 249.28125 210.28125 242.734375 205.335938 234.660156 205.242188 L 189.773438 205.242188 L 189.773438 240.492188 L 234.628906 240.492188 C 242.773438 240.398438 249.320312 235.527344 251.738281 228.734375 " fill-opacity="1" fill-rule="nonzero"/></g></svg>