<svg xmlns="http://www.w3.org/2000/svg" xmlns:xlink="http://www.w3.org/1999/xlink" width="392" zoomAndPan="magnify" viewBox="0 0 294 293.999989" height="392" preserveAspectRatio="xMidYMid meet" version="1.0"><defs><clipPath id="fac9ba0628"><path d="M 17.574219 20.105469 L 274.824219 20.105469 L 274.824219 270.605469 L 17.574219 270.605469 Z M 17.574219 20.105469 " clip-rule="nonzero"/></clipPath><clipPath id="1f7ae99cd7"><path d="M 0.308594 0.308594 L 220.808594 0.308594 L 220.808594 294 L 0.308594 294 Z M 0.308594 0.308594 " clip-rule="nonzero"/></clipPath><clipPath id="cef28012b8"><path d="M 41.277344 0.308594 L 293.277344 0.308594 L 293.277344 294 L 41.277344 294 Z M 41.277344 0.308594 " clip-rule="nonzero"/></clipPath><clipPath id="af4ae34ef1"><path d="M 118.390625 205.160156 L 214.390625 205.160156 L 214.390625 240.410156 L 118.390625 240.410156 Z M 118.390625 205.160156 " clip-rule="nonzero"/></clipPath><clipPath id="bacd61b56c"><path d="M 189.769531 205.242188 L 252.769531 205.242188 L 252.769531 240.492188 L 189.769531 240.492188 Z M 189.769531 205.242188 " clip-rule="nonzero"/></clipPath></defs><g clip-path="url(#fac9ba0628)"><path fill="#ffffff" d="M 31.078125 20.109375 L 261.316406 20.109375 C 268.777344 20.109375 274.824219 26.15625 274.824219 33.617188 L 274.824219 257.097656 C 274.824219 264.554688 268.777344 270.601562 261.316406 270.601562 L 31.078125 270.601562 C 23.617188 270.601562 17.574219 264.554688 17.574219 257.097656 L 17.574219 33.617188 C 17.574219 26.15625 23.617188 20.109375 31.078125 20.109375 " fill-opacity="1" fill-rule="nonzero"/></g><path fill="#ffffff" d="M 269.4375 0 L 24.707031 0 C 11.175781 0 0.292969 11.03125 0.292969 24.414062 L 0.292969 269.585938 C 0.292969 283.117188 11.324219 294 24.707031 294 L 269.292969 294 C 282.824219 294 293.707031 282.96875 293.707031 269.585938 L 293.707031 24.414062 C 293.851562 11.03125 282.96875 0 269.4375 0 Z M 87.214844 242.523438 L 43.828125 242.523438 L 43.828125 112.21875 L 87.214844 112.21875 Z M 65.449219 96.480469 C 51.769531 96.480469 40.738281 85.449219 40.738281 71.773438 C 40.738281 58.09375 51.769531 47.0625 65.449219 47.0625 C 79.125 47.0625 90.15625 58.09375 90.15625 71.773438 C 90.15625 85.449219 79.125 96.480469 65.449219 96.480469 Z M 250.464844 242.523438 L 206.933594 242.523438 L 205.902344 165.164062 C 205.902344 165.164062 206.933594 144.574219 184.429688 144.71875 C 161.929688 144.867188 158.839844 165.164062 158.839844 165.164062 L 158.839844 242.523438 L 115.011719 242.523438 L 115.011719 112.21875 L 157.074219 112.21875 L 157.074219 130.160156 C 157.074219 130.160156 158.839844 124.277344 168.546875 117.363281 C 178.253906 110.453125 194.285156 108.980469 201.195312 109.277344 C 208.109375 109.570312 217.523438 108.394531 233.257812 119.277344 C 250.171875 130.894531 250.613281 161.339844 250.613281 161.339844 Z M 250.464844 242.523438 " fill-opacity="1" fill-rule="nonzero"/><g clip-path="url(#1f7ae99cd7)"><path fill="#ffffff" d="M 13.792969 0.316406 L 207.328125 0.316406 C 214.773438 0.316406 220.808594 6.367188 220.808594 13.828125 L 220.808594 280.792969 C 220.808594 288.253906 214.773438 294.304688 207.328125 294.304688 L 13.792969 294.304688 C 6.347656 294.304688 0.308594 288.253906 0.308594 280.792969 L 0.308594 13.828125 C 0.308594 6.367188 6.347656 0.316406 13.792969 0.316406 " fill-opacity="1" fill-rule="nonzero"/></g><g clip-path="url(#cef28012b8)"><path fill="#ffffff" d="M 54.792969 0.308594 L 279.761719 0.308594 C 287.226562 0.308594 293.277344 6.359375 293.277344 13.824219 L 293.277344 280.796875 C 293.277344 288.261719 287.226562 294.308594 279.761719 294.308594 L 54.792969 294.308594 C 47.328125 294.308594 41.277344 288.261719 41.277344 280.796875 L 41.277344 13.824219 C 41.277344 6.359375 47.328125 0.308594 54.792969 0.308594 " fill-opacity="1" fill-rule="nonzero"/></g><path fill="#ffffff" d="M 67.382812 63.917969 C 72.605469 63.917969 76.089844 65.664062 79.570312 69.148438 L 149.226562 138.867188 C 156.191406 145.839844 156.191406 156.296875 149.226562 163.269531 L 79.570312 232.984375 C 72.605469 239.957031 62.160156 239.957031 55.195312 232.984375 C 48.226562 226.015625 48.226562 215.554688 55.195312 208.585938 L 112.65625 151.066406 L 55.195312 93.550781 C 48.226562 86.578125 48.226562 76.121094 55.195312 69.148438 C 58.675781 65.664062 62.160156 63.917969 67.382812 63.917969 Z M 67.382812 63.917969 " fill-opacity="1" fill-rule="nonzero"/><g clip-path="url(#af4ae34ef1)"><path fill="#ffffff" d="M 119.414062 216.914062 C 118.800781 218.722656 118.398438 220.777344 118.398438 222.792969 C 118.398438 224.808594 118.742188 226.75 119.359375 228.539062 C 119.378906 228.574219 119.378906 228.613281 119.398438 228.652344 C 121.855469 235.367188 128.355469 240.3125 137.117188 240.410156 L 214.382812 240.410156 L 214.382812 205.160156 L 137.171875 205.160156 C 128.316406 205.253906 121.820312 210.125 119.414062 216.914062 " fill-opacity="1" fill-rule="nonzero"/></g><g clip-path="url(#bacd61b56c)"><path fill="#ffffff" d="M 251.738281 228.734375 C 252.359375 226.929688 252.765625 224.875 252.765625 222.855469 C 252.765625 220.839844 252.417969 218.898438 251.796875 217.113281 C 251.777344 217.074219 251.777344 217.035156 251.757812 216.996094 C 249.28125 210.28125 242.734375 205.335938 234.660156 205.242188 L 189.773438 205.242188 L 189.773438 240.492188 L 234.628906 240.492188 C 242.773438 240.398438 249.320312 235.527344 251.738281 228.734375 " fill-opacity="1" fill-rule="nonzero"/></g></svg>