<svg xmlns="http://www.w3.org/2000/svg" xmlns:xlink="http://www.w3.org/1999/xlink" width="1400" zoomAndPan="magnify" viewBox="0 0 1050 293.999989" height="392" preserveAspectRatio="xMidYMid meet" version="1.0"><defs><g/><clipPath id="687bb0e6b9"><path d="M 118.261719 0.308594 L 1049.761719 0.308594 L 1049.761719 294 L 118.261719 294 Z M 118.261719 0.308594 " clip-rule="nonzero"/></clipPath><clipPath id="6a73beab69"><path d="M 147.753906 0 L 455.042969 0 L 455.042969 294 L 147.753906 294 Z M 147.753906 0 " clip-rule="nonzero"/></clipPath><linearGradient x1="0.999314" gradientTransform="matrix(-307.499958, 0, 0, 307.499958, 455.044593, 0)" y1="0.5" x2="0.0000000343421" gradientUnits="userSpaceOnUse" y2="0.5" id="407348eb78"><stop stop-opacity="1" stop-color="rgb(26.295471%, 40.785217%, 71.368408%)" offset="0"/><stop stop-opacity="1" stop-color="rgb(26.269531%, 40.708923%, 71.195984%)" offset="0.0078125"/><stop stop-opacity="1" stop-color="rgb(26.220703%, 40.556335%, 70.849609%)" offset="0.015625"/><stop stop-opacity="1" stop-color="rgb(26.171875%, 40.403748%, 70.503235%)" offset="0.0234375"/><stop stop-opacity="1" stop-color="rgb(26.123047%, 40.249634%, 70.158386%)" offset="0.03125"/><stop stop-opacity="1" stop-color="rgb(26.072693%, 40.097046%, 69.812012%)" offset="0.0390625"/><stop stop-opacity="1" stop-color="rgb(26.023865%, 39.944458%, 69.465637%)" offset="0.046875"/><stop stop-opacity="1" stop-color="rgb(25.975037%, 39.790344%, 69.120789%)" offset="0.0546875"/><stop stop-opacity="1" stop-color="rgb(25.926208%, 39.637756%, 68.774414%)" offset="0.0625"/><stop stop-opacity="1" stop-color="rgb(25.87738%, 39.485168%, 68.42804%)" offset="0.0703125"/><stop stop-opacity="1" stop-color="rgb(25.827026%, 39.332581%, 68.083191%)" offset="0.078125"/><stop stop-opacity="1" stop-color="rgb(25.778198%, 39.178467%, 67.736816%)" offset="0.0859375"/><stop stop-opacity="1" stop-color="rgb(25.72937%, 39.025879%, 67.390442%)" offset="0.09375"/><stop stop-opacity="1" stop-color="rgb(25.680542%, 38.873291%, 67.045593%)" offset="0.101563"/><stop stop-opacity="1" stop-color="rgb(25.630188%, 38.719177%, 66.699219%)" offset="0.109375"/><stop stop-opacity="1" stop-color="rgb(25.58136%, 38.566589%, 66.352844%)" offset="0.117188"/><stop stop-opacity="1" stop-color="rgb(25.532532%, 38.414001%, 66.007996%)" offset="0.125"/><stop stop-opacity="1" stop-color="rgb(25.483704%, 38.261414%, 65.661621%)" offset="0.132812"/><stop stop-opacity="1" stop-color="rgb(25.43335%, 38.1073%, 65.315247%)" offset="0.140625"/><stop stop-opacity="1" stop-color="rgb(25.384521%, 37.954712%, 64.970398%)" offset="0.148438"/><stop stop-opacity="1" stop-color="rgb(25.335693%, 37.802124%, 64.624023%)" offset="0.15625"/><stop stop-opacity="1" stop-color="rgb(25.286865%, 37.64801%, 64.277649%)" offset="0.164063"/><stop stop-opacity="1" stop-color="rgb(25.236511%, 37.495422%, 63.9328%)" offset="0.171875"/><stop stop-opacity="1" stop-color="rgb(25.187683%, 37.342834%, 63.586426%)" offset="0.179688"/><stop stop-opacity="1" stop-color="rgb(25.138855%, 37.190247%, 63.240051%)" offset="0.1875"/><stop stop-opacity="1" stop-color="rgb(25.090027%, 37.036133%, 62.895203%)" offset="0.195313"/><stop stop-opacity="1" stop-color="rgb(25.041199%, 36.883545%, 62.548828%)" offset="0.203125"/><stop stop-opacity="1" stop-color="rgb(24.990845%, 36.730957%, 62.202454%)" offset="0.210938"/><stop stop-opacity="1" stop-color="rgb(24.942017%, 36.576843%, 61.857605%)" offset="0.21875"/><stop stop-opacity="1" stop-color="rgb(24.893188%, 36.424255%, 61.51123%)" offset="0.226563"/><stop stop-opacity="1" stop-color="rgb(24.84436%, 36.271667%, 61.164856%)" offset="0.234375"/><stop stop-opacity="1" stop-color="rgb(24.794006%, 36.11908%, 60.820007%)" offset="0.242188"/><stop stop-opacity="1" stop-color="rgb(24.745178%, 35.964966%, 60.473633%)" offset="0.25"/><stop stop-opacity="1" stop-color="rgb(24.69635%, 35.812378%, 60.127258%)" offset="0.257813"/><stop stop-opacity="1" stop-color="rgb(24.647522%, 35.65979%, 59.78241%)" offset="0.265625"/><stop stop-opacity="1" stop-color="rgb(24.597168%, 35.505676%, 59.436035%)" offset="0.273438"/><stop stop-opacity="1" stop-color="rgb(24.54834%, 35.353088%, 59.091187%)" offset="0.28125"/><stop stop-opacity="1" stop-color="rgb(24.499512%, 35.2005%, 58.744812%)" offset="0.289063"/><stop stop-opacity="1" stop-color="rgb(24.450684%, 35.047913%, 58.398438%)" offset="0.296875"/><stop stop-opacity="1" stop-color="rgb(24.401855%, 34.893799%, 58.053589%)" offset="0.304688"/><stop stop-opacity="1" stop-color="rgb(24.351501%, 34.741211%, 57.707214%)" offset="0.3125"/><stop stop-opacity="1" stop-color="rgb(24.302673%, 34.588623%, 57.36084%)" offset="0.320313"/><stop stop-opacity="1" stop-color="rgb(24.253845%, 34.434509%, 57.015991%)" offset="0.328125"/><stop stop-opacity="1" stop-color="rgb(24.205017%, 34.281921%, 56.669617%)" offset="0.335938"/><stop stop-opacity="1" stop-color="rgb(24.154663%, 34.129333%, 56.323242%)" offset="0.34375"/><stop stop-opacity="1" stop-color="rgb(24.105835%, 33.976746%, 55.978394%)" offset="0.351563"/><stop stop-opacity="1" stop-color="rgb(24.057007%, 33.822632%, 55.632019%)" offset="0.359375"/><stop stop-opacity="1" stop-color="rgb(24.008179%, 33.670044%, 55.285645%)" offset="0.367188"/><stop stop-opacity="1" stop-color="rgb(23.957825%, 33.517456%, 54.940796%)" offset="0.375"/><stop stop-opacity="1" stop-color="rgb(23.908997%, 33.364868%, 54.594421%)" offset="0.382813"/><stop stop-opacity="1" stop-color="rgb(23.860168%, 33.210754%, 54.248047%)" offset="0.390625"/><stop stop-opacity="1" stop-color="rgb(23.81134%, 33.058167%, 53.903198%)" offset="0.398438"/><stop stop-opacity="1" stop-color="rgb(23.760986%, 32.905579%, 53.556824%)" offset="0.40625"/><stop stop-opacity="1" stop-color="rgb(23.712158%, 32.751465%, 53.210449%)" offset="0.414063"/><stop stop-opacity="1" stop-color="rgb(23.66333%, 32.598877%, 52.865601%)" offset="0.421875"/><stop stop-opacity="1" stop-color="rgb(23.614502%, 32.446289%, 52.519226%)" offset="0.429688"/><stop stop-opacity="1" stop-color="rgb(23.565674%, 32.293701%, 52.172852%)" offset="0.4375"/><stop stop-opacity="1" stop-color="rgb(23.51532%, 32.139587%, 51.828003%)" offset="0.445313"/><stop stop-opacity="1" stop-color="rgb(23.466492%, 31.987%, 51.481628%)" offset="0.453125"/><stop stop-opacity="1" stop-color="rgb(23.417664%, 31.834412%, 51.135254%)" offset="0.460938"/><stop stop-opacity="1" stop-color="rgb(23.368835%, 31.680298%, 50.790405%)" offset="0.46875"/><stop stop-opacity="1" stop-color="rgb(23.318481%, 31.52771%, 50.444031%)" offset="0.476563"/><stop stop-opacity="1" stop-color="rgb(23.269653%, 31.375122%, 50.097656%)" offset="0.484375"/><stop stop-opacity="1" stop-color="rgb(23.220825%, 31.222534%, 49.752808%)" offset="0.492188"/><stop stop-opacity="1" stop-color="rgb(23.171997%, 31.06842%, 49.406433%)" offset="0.5"/><stop stop-opacity="1" stop-color="rgb(23.121643%, 30.915833%, 49.060059%)" offset="0.507812"/><stop stop-opacity="1" stop-color="rgb(23.072815%, 30.763245%, 48.71521%)" offset="0.515625"/><stop stop-opacity="1" stop-color="rgb(23.023987%, 30.609131%, 48.368835%)" offset="0.523438"/><stop stop-opacity="1" stop-color="rgb(22.975159%, 30.456543%, 48.022461%)" offset="0.53125"/><stop stop-opacity="1" stop-color="rgb(22.924805%, 30.303955%, 47.677612%)" offset="0.539063"/><stop stop-opacity="1" stop-color="rgb(22.875977%, 30.151367%, 47.331238%)" offset="0.546875"/><stop stop-opacity="1" stop-color="rgb(22.827148%, 29.997253%, 46.984863%)" offset="0.554688"/><stop stop-opacity="1" stop-color="rgb(22.77832%, 29.844666%, 46.640015%)" offset="0.5625"/><stop stop-opacity="1" stop-color="rgb(22.729492%, 29.692078%, 46.29364%)" offset="0.570312"/><stop stop-opacity="1" stop-color="rgb(22.679138%, 29.537964%, 45.947266%)" offset="0.578125"/><stop stop-opacity="1" stop-color="rgb(22.63031%, 29.385376%, 45.602417%)" offset="0.585938"/><stop stop-opacity="1" stop-color="rgb(22.581482%, 29.232788%, 45.256042%)" offset="0.59375"/><stop stop-opacity="1" stop-color="rgb(22.532654%, 29.0802%, 44.909668%)" offset="0.601563"/><stop stop-opacity="1" stop-color="rgb(22.4823%, 28.926086%, 44.564819%)" offset="0.609375"/><stop stop-opacity="1" stop-color="rgb(22.433472%, 28.773499%, 44.218445%)" offset="0.617188"/><stop stop-opacity="1" stop-color="rgb(22.384644%, 28.620911%, 43.87207%)" offset="0.625"/><stop stop-opacity="1" stop-color="rgb(22.335815%, 28.466797%, 43.527222%)" offset="0.632812"/><stop stop-opacity="1" stop-color="rgb(22.285461%, 28.314209%, 43.180847%)" offset="0.640625"/><stop stop-opacity="1" stop-color="rgb(22.236633%, 28.161621%, 42.834473%)" offset="0.648438"/><stop stop-opacity="1" stop-color="rgb(22.187805%, 28.009033%, 42.489624%)" offset="0.65625"/><stop stop-opacity="1" stop-color="rgb(22.138977%, 27.854919%, 42.14325%)" offset="0.664063"/><stop stop-opacity="1" stop-color="rgb(22.090149%, 27.702332%, 41.796875%)" offset="0.671875"/><stop stop-opacity="1" stop-color="rgb(22.039795%, 27.549744%, 41.452026%)" offset="0.679688"/><stop stop-opacity="1" stop-color="rgb(21.990967%, 27.39563%, 41.105652%)" offset="0.6875"/><stop stop-opacity="1" stop-color="rgb(21.942139%, 27.243042%, 40.760803%)" offset="0.695312"/><stop stop-opacity="1" stop-color="rgb(21.893311%, 27.090454%, 40.414429%)" offset="0.703125"/><stop stop-opacity="1" stop-color="rgb(21.842957%, 26.937866%, 40.068054%)" offset="0.710938"/><stop stop-opacity="1" stop-color="rgb(21.794128%, 26.783752%, 39.723206%)" offset="0.71875"/><stop stop-opacity="1" stop-color="rgb(21.7453%, 26.631165%, 39.376831%)" offset="0.726563"/><stop stop-opacity="1" stop-color="rgb(21.696472%, 26.478577%, 39.030457%)" offset="0.734375"/><stop stop-opacity="1" stop-color="rgb(21.646118%, 26.324463%, 38.685608%)" offset="0.742188"/><stop stop-opacity="1" stop-color="rgb(21.59729%, 26.171875%, 38.339233%)" offset="0.75"/><stop stop-opacity="1" stop-color="rgb(21.548462%, 26.019287%, 37.992859%)" offset="0.757812"/><stop stop-opacity="1" stop-color="rgb(21.499634%, 25.866699%, 37.64801%)" offset="0.765625"/><stop stop-opacity="1" stop-color="rgb(21.44928%, 25.712585%, 37.301636%)" offset="0.773437"/><stop stop-opacity="1" stop-color="rgb(21.400452%, 25.559998%, 36.955261%)" offset="0.78125"/><stop stop-opacity="1" stop-color="rgb(21.351624%, 25.40741%, 36.610413%)" offset="0.789063"/><stop stop-opacity="1" stop-color="rgb(21.302795%, 25.253296%, 36.264038%)" offset="0.796875"/><stop stop-opacity="1" stop-color="rgb(21.253967%, 25.100708%, 35.917664%)" offset="0.804688"/><stop stop-opacity="1" stop-color="rgb(21.203613%, 24.94812%, 35.572815%)" offset="0.8125"/><stop stop-opacity="1" stop-color="rgb(21.154785%, 24.795532%, 35.22644%)" offset="0.820312"/><stop stop-opacity="1" stop-color="rgb(21.105957%, 24.641418%, 34.880066%)" offset="0.828125"/><stop stop-opacity="1" stop-color="rgb(21.057129%, 24.488831%, 34.535217%)" offset="0.835937"/><stop stop-opacity="1" stop-color="rgb(21.006775%, 24.336243%, 34.188843%)" offset="0.84375"/><stop stop-opacity="1" stop-color="rgb(20.957947%, 24.183655%, 33.842468%)" offset="0.851563"/><stop stop-opacity="1" stop-color="rgb(20.909119%, 24.029541%, 33.49762%)" offset="0.859375"/><stop stop-opacity="1" stop-color="rgb(20.860291%, 23.876953%, 33.151245%)" offset="0.867188"/><stop stop-opacity="1" stop-color="rgb(20.809937%, 23.724365%, 32.804871%)" offset="0.875"/><stop stop-opacity="1" stop-color="rgb(20.761108%, 23.570251%, 32.460022%)" offset="0.882812"/><stop stop-opacity="1" stop-color="rgb(20.71228%, 23.417664%, 32.113647%)" offset="0.890625"/><stop stop-opacity="1" stop-color="rgb(20.663452%, 23.265076%, 31.767273%)" offset="0.898437"/><stop stop-opacity="1" stop-color="rgb(20.614624%, 23.112488%, 31.422424%)" offset="0.90625"/><stop stop-opacity="1" stop-color="rgb(20.56427%, 22.958374%, 31.07605%)" offset="0.914063"/><stop stop-opacity="1" stop-color="rgb(20.515442%, 22.805786%, 30.729675%)" offset="0.921875"/><stop stop-opacity="1" stop-color="rgb(20.466614%, 22.653198%, 30.384827%)" offset="0.929688"/><stop stop-opacity="1" stop-color="rgb(20.417786%, 22.499084%, 30.038452%)" offset="0.9375"/><stop stop-opacity="1" stop-color="rgb(20.367432%, 22.346497%, 29.692078%)" offset="0.945312"/><stop stop-opacity="1" stop-color="rgb(20.318604%, 22.193909%, 29.347229%)" offset="0.953125"/><stop stop-opacity="1" stop-color="rgb(20.269775%, 22.041321%, 29.000854%)" offset="0.960937"/><stop stop-opacity="1" stop-color="rgb(20.220947%, 21.887207%, 28.65448%)" offset="0.96875"/><stop stop-opacity="1" stop-color="rgb(20.170593%, 21.734619%, 28.309631%)" offset="0.976563"/><stop stop-opacity="1" stop-color="rgb(20.121765%, 21.582031%, 27.963257%)" offset="0.984375"/><stop stop-opacity="1" stop-color="rgb(20.072937%, 21.427917%, 27.616882%)" offset="0.992188"/><stop stop-opacity="1" stop-color="rgb(20.024109%, 21.27533%, 27.272034%)" offset="1"/></linearGradient><clipPath id="6f4d493757"><path d="M 118.390625 205.160156 L 214.390625 205.160156 L 214.390625 240.410156 L 118.390625 240.410156 Z M 118.390625 205.160156 " clip-rule="nonzero"/></clipPath><clipPath id="880ff00d50"><path d="M 189.769531 205.242188 L 252.769531 205.242188 L 252.769531 240.492188 L 189.769531 240.492188 Z M 189.769531 205.242188 " clip-rule="nonzero"/></clipPath></defs><g clip-path="url(#687bb0e6b9)"><path fill="#333645" d="M 131.765625 0.308594 L 1036.257812 0.308594 C 1043.710938 0.308594 1049.753906 6.359375 1049.753906 13.824219 L 1049.753906 280.796875 C 1049.753906 288.261719 1043.710938 294.308594 1036.257812 294.308594 L 131.765625 294.308594 C 124.3125 294.308594 118.269531 288.261719 118.269531 280.796875 L 118.269531 13.824219 C 118.269531 6.359375 124.3125 0.308594 131.765625 0.308594 " fill-opacity="1" fill-rule="nonzero"/></g><path fill="#4368b6" d="M 13.515625 0 L 280.484375 0 C 287.949219 0 294 6.050781 294 13.515625 L 294 280.484375 C 294 287.949219 287.949219 294 280.484375 294 L 13.515625 294 C 6.050781 294 0 287.949219 0 280.484375 L 0 13.515625 C 0 6.050781 6.050781 0 13.515625 0 " fill-opacity="1" fill-rule="nonzero"/><g clip-path="url(#6a73beab69)"><path fill="url(#407348eb78)" d="M 455.042969 0 L 455.042969 294 L 147.753906 294 L 147.753906 0 Z M 455.042969 0 " fill-rule="nonzero"/></g><g fill="#ffffff" fill-opacity="1"><g transform="translate(379.083331, 198.24352)"><g><path d="M 11.984375 -101.390625 C 27.484375 -102.734375 40.578125 -103.40625 51.265625 -103.40625 C 61.953125 -103.40625 70.132812 -100.394531 75.8125 -94.375 C 81.5 -88.363281 84.34375 -79.484375 84.34375 -67.734375 C 84.34375 -53.484375 80.539062 -43.519531 72.9375 -37.84375 C 66.382812 -33.03125 58.148438 -30.625 48.234375 -30.625 L 34.65625 -31.046875 L 34.65625 0 L 11.984375 0 L 12.5625 -47.375 Z M 57.765625 -83.046875 C 56.421875 -84.390625 53.242188 -85.0625 48.234375 -85.0625 C 43.234375 -85.0625 38.707031 -84.820312 34.65625 -84.34375 L 34.65625 -50.6875 C 38.707031 -50.019531 43.1875 -49.6875 48.09375 -49.6875 C 53 -49.6875 56.367188 -50.523438 58.203125 -52.203125 C 60.035156 -53.890625 60.953125 -58.96875 60.953125 -67.4375 C 60.953125 -75.914062 59.890625 -81.117188 57.765625 -83.046875 Z M 57.765625 -83.046875 "/></g></g></g><g fill="#ffffff" fill-opacity="1"><g transform="translate(468.768347, 198.24352)"><g><path d="M 15.53125 -75.453125 C 21.257812 -83.015625 30.863281 -86.796875 44.34375 -86.796875 C 57.820312 -86.796875 67.375 -83.039062 73 -75.53125 C 78.632812 -68.019531 81.453125 -56.992188 81.453125 -42.453125 C 81.453125 -27.921875 78.632812 -16.898438 73 -9.390625 C 67.375 -1.878906 57.820312 1.875 44.34375 1.875 C 30.863281 1.875 21.257812 -1.898438 15.53125 -9.453125 C 9.800781 -17.015625 6.9375 -28.015625 6.9375 -42.453125 C 6.9375 -56.898438 9.800781 -67.898438 15.53125 -75.453125 Z M 58.640625 -42.453125 C 58.640625 -53.429688 57.648438 -60.722656 55.671875 -64.328125 C 53.703125 -67.941406 49.898438 -69.75 44.265625 -69.75 C 38.628906 -69.75 34.800781 -67.921875 32.78125 -64.265625 C 30.757812 -60.609375 29.75 -53.335938 29.75 -42.453125 C 29.75 -31.578125 30.757812 -24.3125 32.78125 -20.65625 C 34.800781 -17 38.628906 -15.171875 44.265625 -15.171875 C 49.898438 -15.171875 53.703125 -16.972656 55.671875 -20.578125 C 57.648438 -24.191406 58.640625 -31.484375 58.640625 -42.453125 Z M 58.640625 -42.453125 "/></g></g></g><g fill="#ffffff" fill-opacity="1"><g transform="translate(557.153582, 198.24352)"><g><path d="M 32.84375 -78.921875 C 34.4375 -80.128906 37.28125 -81.742188 41.375 -83.765625 C 45.46875 -85.785156 49.316406 -86.796875 52.921875 -86.796875 C 56.535156 -86.796875 59.40625 -86.265625 61.53125 -85.203125 L 59.796875 -65.859375 C 57.097656 -66.148438 54.445312 -66.296875 51.84375 -66.296875 C 45.394531 -66.296875 39.378906 -64.5625 33.796875 -61.09375 L 33.796875 0 L 11.40625 0 L 11.40625 -84.921875 L 25.28125 -84.921875 L 28.15625 -75.96875 L 29.03125 -75.96875 C 29.988281 -76.738281 31.257812 -77.722656 32.84375 -78.921875 Z M 32.84375 -78.921875 "/></g></g></g><g fill="#ffffff" fill-opacity="1"><g transform="translate(619.254312, 198.24352)"><g><path d="M 35.8125 -80.734375 L 53.140625 -80.734375 L 53.140625 -63.546875 L 35.53125 -63.546875 L 35.53125 -27.875 C 35.53125 -23.25 35.960938 -20.3125 36.828125 -19.0625 C 37.691406 -17.8125 39.328125 -17.1875 41.734375 -17.1875 L 52.859375 -17.90625 L 52.859375 0.28125 C 48.140625 1.34375 42.941406 1.875 37.265625 1.875 C 28.890625 1.875 22.773438 -0.21875 18.921875 -4.40625 C 15.066406 -8.59375 13.140625 -16.609375 13.140625 -28.453125 L 13.140625 -63.984375 L 3.328125 -63.984375 L 3.328125 -77.984375 L 14.15625 -80.015625 L 17.46875 -100.078125 L 35.8125 -100.078125 Z M 35.8125 -80.734375 "/></g></g></g><g fill="#ffffff" fill-opacity="1"><g transform="translate(677.022447, 198.24352)"><g><path d="M 55.3125 -80.734375 L 55.3125 -63.546875 L 36.25 -63.546875 L 36.25 0 L 13.859375 0 L 13.859375 -63.984375 L 4.046875 -63.984375 L 4.046875 -77.984375 L 14.015625 -80.015625 C 14.878906 -91.753906 17.984375 -99.984375 23.328125 -104.703125 C 28.671875 -109.421875 35.960938 -111.78125 45.203125 -111.78125 L 58.34375 -111.203125 L 56.75 -93.4375 C 52.226562 -93.820312 48.28125 -94.015625 44.90625 -94.015625 C 41.539062 -94.015625 39.28125 -93.242188 38.125 -91.703125 C 36.96875 -90.160156 36.34375 -86.503906 36.25 -80.734375 Z M 55.3125 -80.734375 "/></g></g></g><g fill="#ffffff" fill-opacity="1"><g transform="translate(732.190996, 198.24352)"><g><path d="M 15.53125 -75.453125 C 21.257812 -83.015625 30.863281 -86.796875 44.34375 -86.796875 C 57.820312 -86.796875 67.375 -83.039062 73 -75.53125 C 78.632812 -68.019531 81.453125 -56.992188 81.453125 -42.453125 C 81.453125 -27.921875 78.632812 -16.898438 73 -9.390625 C 67.375 -1.878906 57.820312 1.875 44.34375 1.875 C 30.863281 1.875 21.257812 -1.898438 15.53125 -9.453125 C 9.800781 -17.015625 6.9375 -28.015625 6.9375 -42.453125 C 6.9375 -56.898438 9.800781 -67.898438 15.53125 -75.453125 Z M 58.640625 -42.453125 C 58.640625 -53.429688 57.648438 -60.722656 55.671875 -64.328125 C 53.703125 -67.941406 49.898438 -69.75 44.265625 -69.75 C 38.628906 -69.75 34.800781 -67.921875 32.78125 -64.265625 C 30.757812 -60.609375 29.75 -53.335938 29.75 -42.453125 C 29.75 -31.578125 30.757812 -24.3125 32.78125 -20.65625 C 34.800781 -17 38.628906 -15.171875 44.265625 -15.171875 C 49.898438 -15.171875 53.703125 -16.972656 55.671875 -20.578125 C 57.648438 -24.191406 58.640625 -31.484375 58.640625 -42.453125 Z M 63.828125 -117.84375 L 68.3125 -101.671875 L 24.703125 -93.296875 L 21.515625 -105.28125 Z M 63.828125 -117.84375 "/></g></g></g><g fill="#ffffff" fill-opacity="1"><g transform="translate(820.576252, 198.24352)"><g><path d="M 33.078125 0 L 10.6875 0 L 10.6875 -109.90625 L 33.078125 -109.90625 Z M 33.078125 0 "/></g></g></g><g fill="#ffffff" fill-opacity="1"><g transform="translate(864.335586, 198.24352)"><g><path d="M 34.515625 0 L 12.125 0 L 12.125 -84.921875 L 34.515625 -84.921875 Z M 35.96875 -94.890625 L 10.6875 -94.890625 L 10.6875 -109.90625 L 35.96875 -109.90625 Z M 35.96875 -94.890625 "/></g></g></g><g fill="#ffffff" fill-opacity="1"><g transform="translate(910.983339, 198.24352)"><g><path d="M 15.53125 -75.453125 C 21.257812 -83.015625 30.863281 -86.796875 44.34375 -86.796875 C 57.820312 -86.796875 67.375 -83.039062 73 -75.53125 C 78.632812 -68.019531 81.453125 -56.992188 81.453125 -42.453125 C 81.453125 -27.921875 78.632812 -16.898438 73 -9.390625 C 67.375 -1.878906 57.820312 1.875 44.34375 1.875 C 30.863281 1.875 21.257812 -1.898438 15.53125 -9.453125 C 9.800781 -17.015625 6.9375 -28.015625 6.9375 -42.453125 C 6.9375 -56.898438 9.800781 -67.898438 15.53125 -75.453125 Z M 58.640625 -42.453125 C 58.640625 -53.429688 57.648438 -60.722656 55.671875 -64.328125 C 53.703125 -67.941406 49.898438 -69.75 44.265625 -69.75 C 38.628906 -69.75 34.800781 -67.921875 32.78125 -64.265625 C 30.757812 -60.609375 29.75 -53.335938 29.75 -42.453125 C 29.75 -31.578125 30.757812 -24.3125 32.78125 -20.65625 C 34.800781 -17 38.628906 -15.171875 44.265625 -15.171875 C 49.898438 -15.171875 53.703125 -16.972656 55.671875 -20.578125 C 57.648438 -24.191406 58.640625 -31.484375 58.640625 -42.453125 Z M 58.640625 -42.453125 "/></g></g></g><path fill="#ffffff" d="M 67.382812 63.917969 C 72.605469 63.917969 76.089844 65.664062 79.570312 69.148438 L 149.226562 138.867188 C 156.191406 145.839844 156.191406 156.296875 149.226562 163.269531 L 79.570312 232.984375 C 72.605469 239.957031 62.160156 239.957031 55.195312 232.984375 C 48.226562 226.015625 48.226562 215.554688 55.195312 208.585938 L 112.65625 151.066406 L 55.195312 93.550781 C 48.226562 86.578125 48.226562 76.121094 55.195312 69.148438 C 58.675781 65.664062 62.160156 63.917969 67.382812 63.917969 Z M 67.382812 63.917969 " fill-opacity="1" fill-rule="nonzero"/><g clip-path="url(#6f4d493757)"><path fill="#ffffff" d="M 119.414062 216.914062 C 118.800781 218.722656 118.398438 220.777344 118.398438 222.792969 C 118.398438 224.808594 118.742188 226.75 119.359375 228.539062 C 119.378906 228.574219 119.378906 228.613281 119.398438 228.652344 C 121.859375 235.367188 128.355469 240.3125 137.117188 240.410156 L 214.382812 240.410156 L 214.382812 205.160156 L 137.171875 205.160156 C 128.316406 205.253906 121.820312 210.125 119.414062 216.914062 " fill-opacity="1" fill-rule="nonzero"/></g><g clip-path="url(#880ff00d50)"><path fill="#ffffff" d="M 251.738281 228.734375 C 252.359375 226.929688 252.765625 224.875 252.765625 222.855469 C 252.765625 220.839844 252.417969 218.898438 251.796875 217.113281 C 251.777344 217.074219 251.777344 217.035156 251.757812 216.996094 C 249.28125 210.28125 242.734375 205.335938 234.660156 205.242188 L 189.773438 205.242188 L 189.773438 240.492188 L 234.628906 240.492188 C 242.773438 240.398438 249.320312 235.527344 251.738281 228.734375 " fill-opacity="1" fill-rule="nonzero"/></g></svg>